<svg width="496" height="704" viewBox="0 0 496 704" fill="none" xmlns="http://www.w3.org/2000/svg">
<path fill-rule="evenodd" clip-rule="evenodd" d="M6.62488e-07 703.214L3.67165e-05 -3.82755e-08L1.0271 0L1.02706 703.214L6.62488e-07 703.214Z" fill="url(#paint0_linear_35_1432)"/>
<path fill-rule="evenodd" clip-rule="evenodd" d="M41.2478 703.214L41.2478 -4.01779e-08L42.2749 0L42.2749 703.214L41.2478 703.214Z" fill="url(#paint1_linear_35_1432)"/>
<path fill-rule="evenodd" clip-rule="evenodd" d="M494.97 47.0655H1.03125V46.0385H494.97V47.0655Z" fill="url(#paint2_linear_35_1432)"/>
<path fill-rule="evenodd" clip-rule="evenodd" d="M494.97 94.1311H1.03125V93.104H494.97V94.1311Z" fill="url(#paint3_linear_35_1432)"/>
<path fill-rule="evenodd" clip-rule="evenodd" d="M494.97 141.197H1.03125V140.169H494.97V141.197Z" fill="url(#paint4_linear_35_1432)"/>
<path fill-rule="evenodd" clip-rule="evenodd" d="M494.97 188.262H1.03125V187.235H494.97V188.262Z" fill="url(#paint5_linear_35_1432)"/>
<path fill-rule="evenodd" clip-rule="evenodd" d="M494.97 235.328H1.03125V234.301H494.97V235.328Z" fill="url(#paint6_linear_35_1432)"/>
<path fill-rule="evenodd" clip-rule="evenodd" d="M494.97 282.393H1.03125V281.366H494.97V282.393Z" fill="url(#paint7_linear_35_1432)"/>
<path fill-rule="evenodd" clip-rule="evenodd" d="M494.97 329.459H1.03125V328.432H494.97V329.459Z" fill="url(#paint8_linear_35_1432)"/>
<path fill-rule="evenodd" clip-rule="evenodd" d="M494.97 376.524H1.03125V375.497H494.97V376.524Z" fill="url(#paint9_linear_35_1432)"/>
<path fill-rule="evenodd" clip-rule="evenodd" d="M494.97 423.59H1.03125V422.563H494.97V423.59Z" fill="url(#paint10_linear_35_1432)"/>
<path fill-rule="evenodd" clip-rule="evenodd" d="M494.97 470.655H1.03125V469.628H494.97V470.655Z" fill="url(#paint11_linear_35_1432)"/>
<path fill-rule="evenodd" clip-rule="evenodd" d="M494.97 517.721H1.03125V516.694H494.97V517.721Z" fill="url(#paint12_linear_35_1432)"/>
<path fill-rule="evenodd" clip-rule="evenodd" d="M494.97 564.786H1.03125V563.759H494.97V564.786Z" fill="url(#paint13_linear_35_1432)"/>
<path fill-rule="evenodd" clip-rule="evenodd" d="M494.97 611.852H1.03125V610.825H494.97V611.852Z" fill="url(#paint14_linear_35_1432)"/>
<path fill-rule="evenodd" clip-rule="evenodd" d="M494.97 658.918H1.03125V657.89H494.97V658.918Z" fill="url(#paint15_linear_35_1432)"/>
<path fill-rule="evenodd" clip-rule="evenodd" d="M494.97 47.0655H1.03125V46.0385H494.97V47.0655Z" fill="url(#paint16_linear_35_1432)"/>
<path fill-rule="evenodd" clip-rule="evenodd" d="M494.97 94.1311H1.03125V93.104H494.97V94.1311Z" fill="url(#paint17_linear_35_1432)"/>
<path fill-rule="evenodd" clip-rule="evenodd" d="M494.97 141.197H1.03125V140.169H494.97V141.197Z" fill="url(#paint18_linear_35_1432)"/>
<path fill-rule="evenodd" clip-rule="evenodd" d="M494.97 188.262H1.03125V187.235H494.97V188.262Z" fill="url(#paint19_linear_35_1432)"/>
<path fill-rule="evenodd" clip-rule="evenodd" d="M494.97 235.328H1.03125V234.301H494.97V235.328Z" fill="url(#paint20_linear_35_1432)"/>
<path fill-rule="evenodd" clip-rule="evenodd" d="M494.97 282.393H1.03125V281.366H494.97V282.393Z" fill="url(#paint21_linear_35_1432)"/>
<path fill-rule="evenodd" clip-rule="evenodd" d="M494.97 329.459H1.03125V328.432H494.97V329.459Z" fill="url(#paint22_linear_35_1432)"/>
<path fill-rule="evenodd" clip-rule="evenodd" d="M494.97 376.524H1.03125V375.497H494.97V376.524Z" fill="url(#paint23_linear_35_1432)"/>
<path fill-rule="evenodd" clip-rule="evenodd" d="M494.97 423.59H1.03125V422.563H494.97V423.59Z" fill="url(#paint24_linear_35_1432)"/>
<path fill-rule="evenodd" clip-rule="evenodd" d="M494.97 470.655H1.03125V469.628H494.97V470.655Z" fill="url(#paint25_linear_35_1432)"/>
<path fill-rule="evenodd" clip-rule="evenodd" d="M494.97 517.721H1.03125V516.694H494.97V517.721Z" fill="url(#paint26_linear_35_1432)"/>
<path fill-rule="evenodd" clip-rule="evenodd" d="M494.97 564.786H1.03125V563.759H494.97V564.786Z" fill="url(#paint27_linear_35_1432)"/>
<path fill-rule="evenodd" clip-rule="evenodd" d="M494.97 611.852H1.03125V610.825H494.97V611.852Z" fill="url(#paint28_linear_35_1432)"/>
<path fill-rule="evenodd" clip-rule="evenodd" d="M494.97 658.918H1.03125V657.89H494.97V658.918Z" fill="url(#paint29_linear_35_1432)"/>
<path fill-rule="evenodd" clip-rule="evenodd" d="M82.4951 703.214L82.4952 -4.01779e-08L83.5222 0L83.5222 703.214L82.4951 703.214Z" fill="url(#paint30_linear_35_1432)"/>
<path fill-rule="evenodd" clip-rule="evenodd" d="M123.742 703.214L123.742 -4.01779e-08L124.77 0L124.769 703.214L123.742 703.214Z" fill="url(#paint31_linear_35_1432)"/>
<path fill-rule="evenodd" clip-rule="evenodd" d="M164.99 703.214L164.99 -4.01779e-08L166.017 0L166.017 703.214L164.99 703.214Z" fill="url(#paint32_linear_35_1432)"/>
<path fill-rule="evenodd" clip-rule="evenodd" d="M206.237 703.214L206.237 -4.01779e-08L207.264 0L207.264 703.214L206.237 703.214Z" fill="url(#paint33_linear_35_1432)"/>
<path fill-rule="evenodd" clip-rule="evenodd" d="M247.485 703.214L247.485 -4.01779e-08L248.512 0L248.512 703.214L247.485 703.214Z" fill="url(#paint34_linear_35_1432)"/>
<path fill-rule="evenodd" clip-rule="evenodd" d="M288.732 703.214L288.732 -4.01779e-08L289.759 0L289.759 703.214L288.732 703.214Z" fill="url(#paint35_linear_35_1432)"/>
<path fill-rule="evenodd" clip-rule="evenodd" d="M329.98 703.214L329.98 -4.01779e-08L331.007 0L331.007 703.214L329.98 703.214Z" fill="url(#paint36_linear_35_1432)"/>
<path fill-rule="evenodd" clip-rule="evenodd" d="M371.227 703.214L371.227 -4.01779e-08L372.254 0L372.254 703.214L371.227 703.214Z" fill="url(#paint37_linear_35_1432)"/>
<path fill-rule="evenodd" clip-rule="evenodd" d="M412.475 703.214L412.475 -4.01779e-08L413.502 0L413.502 703.214L412.475 703.214Z" fill="url(#paint38_linear_35_1432)"/>
<path fill-rule="evenodd" clip-rule="evenodd" d="M453.722 703.214L453.722 -4.01779e-08L454.75 0L454.749 703.214L453.722 703.214Z" fill="url(#paint39_linear_35_1432)"/>
<path fill-rule="evenodd" clip-rule="evenodd" d="M494.97 703.214L494.97 -4.01779e-08L495.997 0L495.997 703.214L494.97 703.214Z" fill="url(#paint40_linear_35_1432)"/>
<defs>
<linearGradient id="paint0_linear_35_1432" x1="1.86895e-05" y1="351.607" x2="-0.999981" y2="351.607" gradientUnits="userSpaceOnUse">
<stop stop-color="#F0F0F2" stop-opacity="0.87"/>
<stop offset="1" stop-color="#F0F0F2" stop-opacity="0"/>
</linearGradient>
<linearGradient id="paint1_linear_35_1432" x1="41.2478" y1="351.607" x2="40.2478" y2="351.607" gradientUnits="userSpaceOnUse">
<stop stop-color="#F0F0F2" stop-opacity="0.87"/>
<stop offset="1" stop-color="#F0F0F2" stop-opacity="0"/>
</linearGradient>
<linearGradient id="paint2_linear_35_1432" x1="248.001" y1="47.0655" x2="248.001" y2="48.0655" gradientUnits="userSpaceOnUse">
<stop stop-color="#F0F0F2" stop-opacity="0.87"/>
<stop offset="1" stop-color="#F0F0F2" stop-opacity="0"/>
</linearGradient>
<linearGradient id="paint3_linear_35_1432" x1="248.001" y1="94.1311" x2="248.001" y2="95.1311" gradientUnits="userSpaceOnUse">
<stop stop-color="#F0F0F2" stop-opacity="0.87"/>
<stop offset="1" stop-color="#F0F0F2" stop-opacity="0"/>
</linearGradient>
<linearGradient id="paint4_linear_35_1432" x1="248.001" y1="141.197" x2="248.001" y2="142.197" gradientUnits="userSpaceOnUse">
<stop stop-color="#F0F0F2" stop-opacity="0.87"/>
<stop offset="1" stop-color="#F0F0F2" stop-opacity="0"/>
</linearGradient>
<linearGradient id="paint5_linear_35_1432" x1="248.001" y1="188.262" x2="248.001" y2="189.262" gradientUnits="userSpaceOnUse">
<stop stop-color="#F0F0F2" stop-opacity="0.87"/>
<stop offset="1" stop-color="#F0F0F2" stop-opacity="0"/>
</linearGradient>
<linearGradient id="paint6_linear_35_1432" x1="248.001" y1="235.328" x2="248.001" y2="236.328" gradientUnits="userSpaceOnUse">
<stop stop-color="#F0F0F2" stop-opacity="0.87"/>
<stop offset="1" stop-color="#F0F0F2" stop-opacity="0"/>
</linearGradient>
<linearGradient id="paint7_linear_35_1432" x1="248.001" y1="282.393" x2="248.001" y2="283.393" gradientUnits="userSpaceOnUse">
<stop stop-color="#F0F0F2" stop-opacity="0.87"/>
<stop offset="1" stop-color="#F0F0F2" stop-opacity="0"/>
</linearGradient>
<linearGradient id="paint8_linear_35_1432" x1="248.001" y1="329.459" x2="248.001" y2="330.459" gradientUnits="userSpaceOnUse">
<stop stop-color="#F0F0F2" stop-opacity="0.87"/>
<stop offset="1" stop-color="#F0F0F2" stop-opacity="0"/>
</linearGradient>
<linearGradient id="paint9_linear_35_1432" x1="248.001" y1="376.524" x2="248.001" y2="377.524" gradientUnits="userSpaceOnUse">
<stop stop-color="#F0F0F2" stop-opacity="0.87"/>
<stop offset="1" stop-color="#F0F0F2" stop-opacity="0"/>
</linearGradient>
<linearGradient id="paint10_linear_35_1432" x1="248.001" y1="423.59" x2="248.001" y2="424.59" gradientUnits="userSpaceOnUse">
<stop stop-color="#F0F0F2" stop-opacity="0.87"/>
<stop offset="1" stop-color="#F0F0F2" stop-opacity="0"/>
</linearGradient>
<linearGradient id="paint11_linear_35_1432" x1="248.001" y1="470.655" x2="248.001" y2="471.655" gradientUnits="userSpaceOnUse">
<stop stop-color="#F0F0F2" stop-opacity="0.87"/>
<stop offset="1" stop-color="#F0F0F2" stop-opacity="0"/>
</linearGradient>
<linearGradient id="paint12_linear_35_1432" x1="248.001" y1="517.721" x2="248.001" y2="518.721" gradientUnits="userSpaceOnUse">
<stop stop-color="#F0F0F2" stop-opacity="0.87"/>
<stop offset="1" stop-color="#F0F0F2" stop-opacity="0"/>
</linearGradient>
<linearGradient id="paint13_linear_35_1432" x1="248.001" y1="564.786" x2="248.001" y2="565.786" gradientUnits="userSpaceOnUse">
<stop stop-color="#F0F0F2" stop-opacity="0.87"/>
<stop offset="1" stop-color="#F0F0F2" stop-opacity="0"/>
</linearGradient>
<linearGradient id="paint14_linear_35_1432" x1="248.001" y1="611.852" x2="248.001" y2="612.852" gradientUnits="userSpaceOnUse">
<stop stop-color="#F0F0F2" stop-opacity="0.87"/>
<stop offset="1" stop-color="#F0F0F2" stop-opacity="0"/>
</linearGradient>
<linearGradient id="paint15_linear_35_1432" x1="248.001" y1="658.917" x2="248.001" y2="659.917" gradientUnits="userSpaceOnUse">
<stop stop-color="#F0F0F2" stop-opacity="0.87"/>
<stop offset="1" stop-color="#F0F0F2" stop-opacity="0"/>
</linearGradient>
<linearGradient id="paint16_linear_35_1432" x1="248.001" y1="47.0655" x2="248.001" y2="48.0655" gradientUnits="userSpaceOnUse">
<stop stop-color="#F0F0F2" stop-opacity="0.87"/>
<stop offset="1" stop-color="#F0F0F2" stop-opacity="0"/>
</linearGradient>
<linearGradient id="paint17_linear_35_1432" x1="248.001" y1="94.1311" x2="248.001" y2="95.1311" gradientUnits="userSpaceOnUse">
<stop stop-color="#F0F0F2" stop-opacity="0.87"/>
<stop offset="1" stop-color="#F0F0F2" stop-opacity="0"/>
</linearGradient>
<linearGradient id="paint18_linear_35_1432" x1="248.001" y1="141.197" x2="248.001" y2="142.197" gradientUnits="userSpaceOnUse">
<stop stop-color="#F0F0F2" stop-opacity="0.87"/>
<stop offset="1" stop-color="#F0F0F2" stop-opacity="0"/>
</linearGradient>
<linearGradient id="paint19_linear_35_1432" x1="248.001" y1="188.262" x2="248.001" y2="189.262" gradientUnits="userSpaceOnUse">
<stop stop-color="#F0F0F2" stop-opacity="0.87"/>
<stop offset="1" stop-color="#F0F0F2" stop-opacity="0"/>
</linearGradient>
<linearGradient id="paint20_linear_35_1432" x1="248.001" y1="235.328" x2="248.001" y2="236.328" gradientUnits="userSpaceOnUse">
<stop stop-color="#F0F0F2" stop-opacity="0.87"/>
<stop offset="1" stop-color="#F0F0F2" stop-opacity="0"/>
</linearGradient>
<linearGradient id="paint21_linear_35_1432" x1="248.001" y1="282.393" x2="248.001" y2="283.393" gradientUnits="userSpaceOnUse">
<stop stop-color="#F0F0F2" stop-opacity="0.87"/>
<stop offset="1" stop-color="#F0F0F2" stop-opacity="0"/>
</linearGradient>
<linearGradient id="paint22_linear_35_1432" x1="248.001" y1="329.459" x2="248.001" y2="330.459" gradientUnits="userSpaceOnUse">
<stop stop-color="#F0F0F2" stop-opacity="0.87"/>
<stop offset="1" stop-color="#F0F0F2" stop-opacity="0"/>
</linearGradient>
<linearGradient id="paint23_linear_35_1432" x1="248.001" y1="376.524" x2="248.001" y2="377.524" gradientUnits="userSpaceOnUse">
<stop stop-color="#F0F0F2" stop-opacity="0.87"/>
<stop offset="1" stop-color="#F0F0F2" stop-opacity="0"/>
</linearGradient>
<linearGradient id="paint24_linear_35_1432" x1="248.001" y1="423.59" x2="248.001" y2="424.59" gradientUnits="userSpaceOnUse">
<stop stop-color="#F0F0F2" stop-opacity="0.87"/>
<stop offset="1" stop-color="#F0F0F2" stop-opacity="0"/>
</linearGradient>
<linearGradient id="paint25_linear_35_1432" x1="248.001" y1="470.655" x2="248.001" y2="471.655" gradientUnits="userSpaceOnUse">
<stop stop-color="#F0F0F2" stop-opacity="0.87"/>
<stop offset="1" stop-color="#F0F0F2" stop-opacity="0"/>
</linearGradient>
<linearGradient id="paint26_linear_35_1432" x1="248.001" y1="517.721" x2="248.001" y2="518.721" gradientUnits="userSpaceOnUse">
<stop stop-color="#F0F0F2" stop-opacity="0.87"/>
<stop offset="1" stop-color="#F0F0F2" stop-opacity="0"/>
</linearGradient>
<linearGradient id="paint27_linear_35_1432" x1="248.001" y1="564.786" x2="248.001" y2="565.786" gradientUnits="userSpaceOnUse">
<stop stop-color="#F0F0F2" stop-opacity="0.87"/>
<stop offset="1" stop-color="#F0F0F2" stop-opacity="0"/>
</linearGradient>
<linearGradient id="paint28_linear_35_1432" x1="248.001" y1="611.852" x2="248.001" y2="612.852" gradientUnits="userSpaceOnUse">
<stop stop-color="#F0F0F2" stop-opacity="0.87"/>
<stop offset="1" stop-color="#F0F0F2" stop-opacity="0"/>
</linearGradient>
<linearGradient id="paint29_linear_35_1432" x1="248.001" y1="658.917" x2="248.001" y2="659.917" gradientUnits="userSpaceOnUse">
<stop stop-color="#F0F0F2" stop-opacity="0.87"/>
<stop offset="1" stop-color="#F0F0F2" stop-opacity="0"/>
</linearGradient>
<linearGradient id="paint30_linear_35_1432" x1="82.4951" y1="351.607" x2="81.4951" y2="351.607" gradientUnits="userSpaceOnUse">
<stop stop-color="#F0F0F2" stop-opacity="0.87"/>
<stop offset="1" stop-color="#F0F0F2" stop-opacity="0"/>
</linearGradient>
<linearGradient id="paint31_linear_35_1432" x1="123.742" y1="351.607" x2="122.742" y2="351.607" gradientUnits="userSpaceOnUse">
<stop stop-color="#F0F0F2" stop-opacity="0.87"/>
<stop offset="1" stop-color="#F0F0F2" stop-opacity="0"/>
</linearGradient>
<linearGradient id="paint32_linear_35_1432" x1="164.99" y1="351.607" x2="163.99" y2="351.607" gradientUnits="userSpaceOnUse">
<stop stop-color="#F0F0F2" stop-opacity="0.87"/>
<stop offset="1" stop-color="#F0F0F2" stop-opacity="0"/>
</linearGradient>
<linearGradient id="paint33_linear_35_1432" x1="206.237" y1="351.607" x2="205.237" y2="351.607" gradientUnits="userSpaceOnUse">
<stop stop-color="#F0F0F2" stop-opacity="0.87"/>
<stop offset="1" stop-color="#F0F0F2" stop-opacity="0"/>
</linearGradient>
<linearGradient id="paint34_linear_35_1432" x1="247.485" y1="351.607" x2="246.485" y2="351.607" gradientUnits="userSpaceOnUse">
<stop stop-color="#F0F0F2" stop-opacity="0.87"/>
<stop offset="1" stop-color="#F0F0F2" stop-opacity="0"/>
</linearGradient>
<linearGradient id="paint35_linear_35_1432" x1="288.732" y1="351.607" x2="287.732" y2="351.607" gradientUnits="userSpaceOnUse">
<stop stop-color="#F0F0F2" stop-opacity="0.87"/>
<stop offset="1" stop-color="#F0F0F2" stop-opacity="0"/>
</linearGradient>
<linearGradient id="paint36_linear_35_1432" x1="329.98" y1="351.607" x2="328.98" y2="351.607" gradientUnits="userSpaceOnUse">
<stop stop-color="#F0F0F2" stop-opacity="0.87"/>
<stop offset="1" stop-color="#F0F0F2" stop-opacity="0"/>
</linearGradient>
<linearGradient id="paint37_linear_35_1432" x1="371.227" y1="351.607" x2="370.227" y2="351.607" gradientUnits="userSpaceOnUse">
<stop stop-color="#F0F0F2" stop-opacity="0.87"/>
<stop offset="1" stop-color="#F0F0F2" stop-opacity="0"/>
</linearGradient>
<linearGradient id="paint38_linear_35_1432" x1="412.475" y1="351.607" x2="411.475" y2="351.607" gradientUnits="userSpaceOnUse">
<stop stop-color="#F0F0F2" stop-opacity="0.87"/>
<stop offset="1" stop-color="#F0F0F2" stop-opacity="0"/>
</linearGradient>
<linearGradient id="paint39_linear_35_1432" x1="453.722" y1="351.607" x2="452.722" y2="351.607" gradientUnits="userSpaceOnUse">
<stop stop-color="#F0F0F2" stop-opacity="0.87"/>
<stop offset="1" stop-color="#F0F0F2" stop-opacity="0"/>
</linearGradient>
<linearGradient id="paint40_linear_35_1432" x1="494.97" y1="351.607" x2="493.97" y2="351.607" gradientUnits="userSpaceOnUse">
<stop stop-color="#F0F0F2" stop-opacity="0.87"/>
<stop offset="1" stop-color="#F0F0F2" stop-opacity="0"/>
</linearGradient>
</defs>
</svg>
