<svg width="20" height="22" viewBox="0 0 20 22" fill="none" xmlns="http://www.w3.org/2000/svg">
<path d="M18.2973 9.39885V17.1062H19.7764V9.39885H18.2973ZM15.0927 20.3436H5.23227V21.8227H15.0927V20.3436ZM2.02764 17.1062V9.39885H0.548584V17.1062H2.02764ZM3.20755 6.88958L8.13775 2.82988L7.19756 1.68809L2.26736 5.74779L3.20755 6.88958ZM12.1872 2.82988L17.1174 6.88958L18.0576 5.74779L13.1274 1.68809L12.1872 2.82988ZM8.13775 2.82988C9.31655 1.85919 11.0084 1.85919 12.1872 2.82988L13.1274 1.68809C11.4024 0.267705 8.92253 0.267709 7.19756 1.68809L8.13775 2.82988ZM5.23227 20.3436C3.46815 20.3436 2.02764 18.8999 2.02764 17.1062H0.548584C0.548584 19.7053 2.6398 21.8227 5.23227 21.8227V20.3436ZM18.2973 17.1062C18.2973 18.8999 16.8568 20.3436 15.0927 20.3436V21.8227C17.6852 21.8227 19.7764 19.7053 19.7764 17.1062H18.2973ZM19.7764 9.39885C19.7764 7.98511 19.1464 6.64436 18.0576 5.74779L17.1174 6.88958C17.8631 7.50357 18.2973 8.42456 18.2973 9.39885H19.7764ZM2.02764 9.39885C2.02764 8.42456 2.4619 7.50358 3.20755 6.88958L2.26736 5.74779C1.17855 6.64436 0.548584 7.98511 0.548584 9.39885H2.02764Z" fill="#8B3DFF"/>
<path d="M8.19019 17.139H12.1343" stroke="#8B3DFF" stroke-width="1.47906" stroke-linecap="round"/>
</svg>
