<svg width="22" height="20" viewBox="0 0 22 20" fill="none" xmlns="http://www.w3.org/2000/svg">
<path d="M10.5972 3.8374L10.0559 4.34126C10.1958 4.49156 10.392 4.57693 10.5972 4.57693C10.8025 4.57693 10.9987 4.49156 11.1386 4.34126L10.5972 3.8374ZM11.1386 4.34126L11.8929 3.5308L10.8103 2.52309L10.0559 3.33354L11.1386 4.34126ZM9.30159 3.5308L10.0559 4.34126L11.1386 3.33354L10.3842 2.52309L9.30159 3.5308ZM1.75787 11.6354L8.54718 18.9296L9.62984 17.9219L2.84051 10.6277L1.75787 11.6354ZM12.6473 18.9296L19.4366 11.6354L18.3539 10.6277L11.5646 17.9219L12.6473 18.9296ZM18.3539 3.5308C20.1728 5.4849 20.1729 8.67361 18.3539 10.6277L19.4366 11.6354C21.7841 9.11348 21.7841 5.04504 19.4366 2.52309L18.3539 3.5308ZM19.4366 2.52309C17.061 -0.0291797 13.1859 -0.0291797 10.8103 2.52309L11.8929 3.5308C13.6835 1.607 16.5633 1.607 18.3539 3.5308L19.4366 2.52309ZM2.84052 3.5308C4.63117 1.607 7.5109 1.607 9.30159 3.5308L10.3842 2.52309C8.00859 -0.0291797 4.13348 -0.0291797 1.75787 2.52309L2.84052 3.5308ZM8.54718 18.9296C9.67293 20.139 11.5216 20.139 12.6473 18.9296L11.5646 17.9219C11.0239 18.5028 10.1706 18.5028 9.62984 17.9219L8.54718 18.9296ZM1.75787 2.52309C-0.589536 5.04504 -0.589537 9.11348 1.75787 11.6354L2.84051 10.6277C1.02166 8.67361 1.02166 5.4849 2.84052 3.5308L1.75787 2.52309Z" fill="#28303F"/>
</svg>
