<svg width="22" height="22" viewBox="0 0 22 22" fill="none" xmlns="http://www.w3.org/2000/svg">
<path d="M0.995145 5.553C0.586718 5.553 0.255615 5.8841 0.255615 6.29253C0.255615 6.70096 0.586718 7.03206 0.995145 7.03206V5.553ZM20.7159 7.03206C21.1244 7.03206 21.4555 6.70096 21.4555 6.29253C21.4555 5.8841 21.1244 5.553 20.7159 5.553V7.03206ZM12.8276 10.4832C12.4192 10.4832 12.0881 10.8143 12.0881 11.2227C12.0881 11.6311 12.4192 11.9623 12.8276 11.9623V10.4832ZM16.7718 11.9623C17.1802 11.9623 17.5113 11.6311 17.5113 11.2227C17.5113 10.8143 17.1802 10.4832 16.7718 10.4832V11.9623ZM12.8276 14.4274C12.4192 14.4274 12.0881 14.7585 12.0881 15.1669C12.0881 15.5753 12.4192 15.9064 12.8276 15.9064V14.4274ZM16.7718 15.9064C17.1802 15.9064 17.5113 15.5753 17.5113 15.1669C17.5113 14.7585 17.1802 14.4274 16.7718 14.4274V15.9064ZM6.03558 11.6116L8.76094 12.9743L9.42243 11.6515L6.69704 10.2888L6.03558 11.6116ZM8.76094 13.4153L6.03558 14.778L6.69704 16.1009L9.42243 14.7382L8.76094 13.4153ZM5.67883 14.5575V11.8321H4.19977V14.5575H5.67883ZM6.03558 14.778C5.87168 14.8599 5.67883 14.7407 5.67883 14.5575H4.19977C4.19977 15.8403 5.5497 16.6745 6.69704 16.1009L6.03558 14.778ZM8.76094 12.9743C8.94263 13.0651 8.94263 13.3245 8.76094 13.4153L9.42243 14.7382C10.6942 14.1023 10.6942 12.2874 9.42243 11.6515L8.76094 12.9743ZM6.69704 10.2888C5.54971 9.71508 4.19977 10.5494 4.19977 11.8321H5.67883C5.67883 11.6489 5.87168 11.5297 6.03558 11.6116L6.69704 10.2888ZM4.9393 2.10186H16.7718V0.622803H4.9393V2.10186ZM19.9764 5.30649V17.139H21.4555V5.30649H19.9764ZM16.7718 20.3436H4.9393V21.8227H16.7718V20.3436ZM1.73468 17.139V5.30649H0.255615V17.139H1.73468ZM4.9393 20.3436C3.16943 20.3436 1.73468 18.9088 1.73468 17.139H0.255615C0.255615 19.7257 2.35258 21.8227 4.9393 21.8227V20.3436ZM19.9764 17.139C19.9764 18.9088 18.5416 20.3436 16.7718 20.3436V21.8227C19.3586 21.8227 21.4555 19.7257 21.4555 17.139H19.9764ZM16.7718 2.10186C18.5416 2.10186 19.9764 3.53662 19.9764 5.30649H21.4555C21.4555 2.71976 19.3586 0.622803 16.7718 0.622803V2.10186ZM4.9393 0.622803C2.35258 0.622803 0.255615 2.71976 0.255615 5.30649H1.73468C1.73468 3.53662 3.16943 2.10186 4.9393 2.10186V0.622803ZM0.995145 7.03206H20.7159V5.553H0.995145V7.03206ZM12.8276 11.9623H16.7718V10.4832H12.8276V11.9623ZM12.8276 15.9064H16.7718V14.4274H12.8276V15.9064Z" fill="#313C45"/>
</svg>
