<svg width="16" height="20" viewBox="0 0 16 20" fill="none" xmlns="http://www.w3.org/2000/svg">
<path d="M11.543 5.29258C11.543 7.06245 10.1082 8.49721 8.33834 8.49721V9.97627C10.9251 9.97627 13.022 7.8793 13.022 5.29258H11.543ZM8.33834 8.49721C6.5685 8.49721 5.13371 7.06245 5.13371 5.29258H3.65465C3.65465 7.8793 5.75161 9.97627 8.33834 9.97627V8.49721ZM5.13371 5.29258C5.13371 3.5227 6.5685 2.08795 8.33834 2.08795V0.608887C5.75161 0.608887 3.65465 2.70585 3.65465 5.29258H5.13371ZM8.33834 2.08795C10.1082 2.08795 11.543 3.5227 11.543 5.29258H13.022C13.022 2.70585 10.9251 0.608887 8.33834 0.608887V2.08795ZM14.5011 15.646C14.5011 16.168 14.0588 16.8396 12.8882 17.4249C11.7621 17.9879 10.1544 18.3576 8.33834 18.3576V19.8367C10.3343 19.8367 12.1778 19.4338 13.5498 18.7478C14.8774 18.084 15.9802 17.03 15.9802 15.646H14.5011ZM8.33834 18.3576C6.52225 18.3576 4.91463 17.9879 3.78842 17.4249C2.61797 16.8396 2.17559 16.168 2.17559 15.646H0.696533C0.696533 17.03 1.79928 18.084 3.12696 18.7478C4.49888 19.4338 6.34242 19.8367 8.33834 19.8367V18.3576ZM2.17559 15.646C2.17559 15.124 2.61797 14.4524 3.78842 13.8671C4.91463 13.3041 6.52225 12.9344 8.33834 12.9344V11.4553C6.34242 11.4553 4.49888 11.8582 3.12696 12.5442C1.79928 13.208 0.696533 14.262 0.696533 15.646H2.17559ZM8.33834 12.9344C10.1544 12.9344 11.7621 13.3041 12.8882 13.8671C14.0588 14.4524 14.5011 15.124 14.5011 15.646H15.9802C15.9802 14.262 14.8774 13.208 13.5498 12.5442C12.1778 11.8582 10.3343 11.4553 8.33834 11.4553V12.9344Z" fill="#313C45"/>
</svg>
