<svg width="16" height="15" viewBox="0 0 16 15" fill="none" xmlns="http://www.w3.org/2000/svg">
<path d="M15.4861 5.82709C15.4556 5.73528 15.3788 5.66526 15.2831 5.64221L10.7228 4.53878L8.24226 0.63178C8.19018 0.549749 8.09859 0.5 8 0.5C7.90141 0.5 7.80982 0.549749 7.75774 0.63178L5.27722 4.53878L0.716939 5.64221C0.621205 5.66526 0.544447 5.73528 0.513915 5.82709C0.483525 5.9189 0.503642 6.0198 0.567132 6.09358L3.59438 9.61167L3.25653 14.2005C3.2494 14.2968 3.29377 14.3898 3.37338 14.4467C3.45356 14.5035 3.55757 14.5158 3.6486 14.4794L8 12.7467L12.3514 14.4794C12.3859 14.4933 12.4225 14.5 12.4588 14.5C12.5182 14.5 12.577 14.4818 12.6266 14.4466C12.7064 14.3898 12.7506 14.2968 12.7435 14.2003L12.4056 9.61153L15.4329 6.09344C15.4964 6.0198 15.5165 5.91904 15.4861 5.82709Z" fill="#FFB342"/>
</svg>
