<svg width="22" height="22" viewBox="0 0 22 22" fill="none" xmlns="http://www.w3.org/2000/svg">
<path fill-rule="evenodd" clip-rule="evenodd" d="M1.99322 10.7297C1.99322 15.4947 5.85604 19.3576 10.6211 19.3576C15.3861 19.3576 19.2489 15.4947 19.2489 10.7297C19.2489 5.96468 15.3861 2.10186 10.6211 2.10186C5.85604 2.10186 1.99322 5.96468 1.99322 10.7297ZM10.6211 20.8366C5.03918 20.8366 0.51416 16.3116 0.51416 10.7297C0.51416 5.14782 5.03918 0.622803 10.6211 0.622803C16.2029 0.622803 20.728 5.14782 20.728 10.7297C20.728 13.2545 19.8022 15.563 18.2717 17.3344L21.4974 20.5602C21.7862 20.849 21.7862 21.3172 21.4974 21.606C21.2086 21.8948 20.7404 21.8948 20.4516 21.606L17.2258 18.3803C15.4543 19.9108 13.1458 20.8366 10.6211 20.8366Z" fill="#313C45"/>
</svg>
