<svg width="24" height="24" viewBox="0 0 24 24" fill="none" xmlns="http://www.w3.org/2000/svg">
<path d="M22.1402 12.3235L23.1262 12.3235M12.2798 2.46309L12.2798 1.47705M12.2798 23.1699L12.2798 22.1839M20.1681 20.2118L19.1821 19.2258M20.1681 4.43517L19.1821 5.42121M4.39147 20.2118L5.37751 19.2258M4.39147 4.43517L5.37751 5.42121M1.43335 12.3235L2.41939 12.3235M10.2604 9.97967L11.7976 6.72081C11.839 6.6275 11.9066 6.54821 11.9922 6.49256C12.0778 6.43691 12.1777 6.40728 12.2798 6.40728C12.3819 6.40728 12.4818 6.43691 12.5674 6.49256C12.6529 6.54821 12.7205 6.6275 12.762 6.72081L14.2992 9.97967L17.7355 10.5052C18.1763 10.5723 18.3518 11.1402 18.0333 11.4656L15.5465 13.9998L16.1332 17.5801C16.2092 18.0405 15.7477 18.3906 15.3533 18.1737L12.2798 16.4826L9.2063 18.1737C8.81189 18.3906 8.35042 18.0405 8.42634 17.5801L9.01304 14.0007L6.52625 11.4656C6.20775 11.1402 6.38327 10.5723 6.82403 10.5052L10.2604 9.97967Z" stroke="url(#paint0_linear_49_1146)" stroke-width="1.47906" stroke-linecap="round" stroke-linejoin="round"/>
<defs>
<linearGradient id="paint0_linear_49_1146" x1="1.43335" y1="12.3235" x2="23.1262" y2="12.3235" gradientUnits="userSpaceOnUse">
<stop stop-color="#00C4CC"/>
<stop offset="1" stop-color="#8B3DFF"/>
</linearGradient>
</defs>
</svg>
