<svg width="144" height="144" viewBox="0 0 144 144" fill="none" xmlns="http://www.w3.org/2000/svg">
<path d="M78.29 118.777C84.383 117.706 90.739 115.54 97.094 111.827C118.47 99.2579 126.373 77.1439 126.373 64.5519C126.373 48.7939 126.373 44.2949 115.114 26.2749C111.877 21.0859 105.783 13.2069 95.119 7.13691C91.8381 5.25884 88.3669 3.73462 84.764 2.58991C84.3688 2.46009 83.9514 2.41165 83.5369 2.4475C83.1225 2.48335 82.7196 2.60276 82.3526 2.79853C81.9855 2.99429 81.6619 3.26235 81.4013 3.58655C81.1406 3.91075 80.9483 4.28438 80.836 4.68491L80.813 4.80491C80.408 6.25591 81.098 7.77991 82.407 8.42191C81.979 9.32691 81.431 10.4929 80.789 11.8499C81.979 12.2309 82.907 12.5639 83.55 12.7779C84.36 13.0639 85.383 13.4449 86.525 13.8979C86.882 12.6359 87.215 11.3739 87.573 10.1129C93.3124 12.267 98.6178 15.4354 103.236 19.4669C105.711 21.6339 113.091 28.5129 117.352 39.7959C123.303 55.6019 121.493 75.8109 109.663 91.1649C98.808 105.233 83.812 109.66 75.433 111.136C73.6505 111.449 71.8556 111.688 70.053 111.85C68.244 112.017 66.483 112.112 64.769 112.136C59.8119 112.175 54.8696 111.591 50.058 110.398C50.962 108.518 51.867 106.637 52.772 104.733C50.5767 104.164 48.4342 103.407 46.368 102.472C45.368 104.685 44.416 106.685 43.559 108.47C42.7774 108.308 41.9633 108.455 41.2884 108.882C40.6135 109.308 40.1304 109.979 39.941 110.755L39.917 110.874C39.56 112.35 40.298 113.874 41.703 114.469C45.797 116.207 54.604 119.325 65.53 119.73C66.03 126.299 66.054 133.084 64.102 133.536C60.246 134.417 47.892 131.203 44.821 136.464C44.226 137.487 44.083 138.273 44.345 138.868C45.487 141.701 53.533 141.01 62.198 140.558C85.811 139.368 97.261 141.248 98.285 137.321C98.546 136.273 97.951 135.297 97.808 135.083C94.904 130.394 81.812 136.607 78.384 131.917C77.599 130.846 77.861 129.941 78.075 125.633C78.218 123.062 78.266 120.801 78.29 118.777Z" fill="#FF5252"/>
<path d="M115.067 60.22C113.734 75.955 104.736 85.905 101.57 89.309C90.049 101.687 76.124 104.376 72.291 105.067C68.531 105.733 62.198 106.804 54.271 105.067C53.771 104.948 53.248 104.829 52.772 104.71C50.5769 104.141 48.4347 103.384 46.369 102.448C37.371 98.402 31.849 92.046 29.516 89.308C28.4318 88.037 27.4147 86.7102 26.469 85.333C35.514 77.454 25.374 74.931 25.089 68.218C24.779 61.172 26.873 52.341 29.301 43.7C30.587 39.106 28.04 35.083 25.35 32.298C27.4478 28.7769 29.9656 25.5238 32.848 22.61C40.18 26.133 49.297 27.918 57.938 22.491C64.055 18.659 66.84 13.969 67.816 9.375C69.696 9.494 71.482 9.685 73.124 9.946C76.243 10.446 78.861 11.16 80.814 11.779C81.146 11.874 81.432 11.969 81.718 12.065C81.67 13.375 81.408 14.874 80.67 16.349C78.861 20.087 75.695 20.539 75.79 22.467C75.933 25.371 83.193 27.227 86.74 27.99C89.382 28.561 92.144 28.442 96.024 27.894C99.928 27.347 102.189 26.324 103.522 25.371C104.403 26.323 105.26 27.371 106.117 28.466C107.525 30.3139 108.783 32.2719 109.878 34.321C105.902 36.226 101.57 37.511 97.618 37.059C85.908 35.726 82.979 32.727 80.051 37.154C77.123 41.582 79.837 41.082 83.122 45.962C86.383 50.842 105.617 59.506 88.692 56.388C71.768 53.269 72.982 47.247 64.079 51.222C55.176 55.222 53.724 48.77 50.796 56.388C47.916 63.886 55.629 75.812 60.056 75.264C61.461 75.098 62.198 73.764 65.079 73.384C67.292 73.098 68.245 73.717 68.53 73.907C68.768 74.074 69.435 74.597 69.982 76.169C70.72 78.287 70.506 80.168 70.387 81.12C69.554 87.952 68.84 88.237 69.363 89.594C70.387 92.284 74.41 94.117 77.623 93.522C81.146 92.879 81.027 89.785 85.264 87.547C90.62 84.691 94.358 87.785 96.619 85.286C99.428 82.144 93.881 77.097 96.643 70.694C98.785 65.719 104.784 63.005 106.664 62.244C107.95 61.72 109.092 61.648 110.806 61.172C111.639 60.958 113.186 60.625 115.067 60.22Z" fill="#3700ED"/>
<path d="M67.816 9.3999C66.84 13.9939 64.055 18.6829 57.937 22.5159C49.297 27.9429 40.179 26.1579 32.847 22.6349C36.87 18.6119 41.75 15.1599 47.535 12.7559C54.843 9.7089 61.866 9.0659 67.816 9.3999ZM103.497 25.4179C102.188 26.3699 99.903 27.3699 95.999 27.9409C92.119 28.4879 89.358 28.6069 86.716 28.0359C83.169 27.2739 75.909 25.4179 75.766 22.5139C75.671 20.5859 78.836 20.1339 80.646 16.3959C81.36 14.9199 81.646 13.4199 81.693 12.1109C82.455 12.3729 83.073 12.5869 83.55 12.7539C84.359 13.0399 85.383 13.4209 86.525 13.8729C91 15.6819 97.618 18.9899 103.497 25.4179ZM115.09 60.0279V60.2189C113.185 60.6229 111.638 60.9559 110.757 61.1949C109.043 61.6469 107.925 61.7419 106.615 62.2649C104.735 63.0039 98.736 65.7169 96.594 70.7159C93.833 77.1189 99.379 82.1659 96.57 85.3079C94.309 87.8309 90.572 84.7369 85.216 87.5689C80.979 89.8069 81.098 92.9009 77.575 93.5439C74.385 94.1389 70.338 92.3059 69.315 89.6169C68.815 88.2829 69.529 87.9739 70.338 81.1419C70.458 80.1899 70.648 78.3099 69.934 76.1919C69.386 74.6199 68.744 74.0959 68.481 73.9299C68.196 73.7149 67.244 73.1199 65.03 73.4059C62.173 73.7859 61.412 75.1199 60.007 75.2859C55.556 75.8339 47.867 63.9079 50.747 56.4099C53.675 48.7929 55.127 55.2439 64.03 51.2449C72.933 47.2689 71.719 53.2919 88.643 56.4099C105.568 59.5279 86.334 50.8639 83.073 45.9839C79.813 41.1039 77.075 41.6039 80.003 37.1759C82.93 32.7489 85.858 35.7479 97.57 37.0809C101.521 37.5329 105.854 36.2479 109.829 34.3439C115.875 45.6509 115.375 56.6239 115.09 60.0279ZM26.492 85.3339C22.922 80.1439 21.207 75.5259 20.541 73.5509C20.017 72.0029 17.232 63.5289 18.279 53.2929C18.969 46.6279 21.279 39.1779 25.373 32.3229C28.063 35.0829 30.61 39.1299 29.324 43.7239C26.896 52.3649 24.802 61.1959 25.111 68.2419C25.397 74.9319 35.513 77.4539 26.491 85.3339H26.492ZM90.192 89.4269C89.644 89.3559 87.931 89.2839 84.622 91.9979C82.812 93.4739 79.885 96.3059 80.408 97.1399C80.623 97.4729 81.337 97.4969 82.694 97.1159C87.097 95.8779 87.978 93.6639 90.192 92.7119C92.239 91.8079 92.358 90.9269 92.287 90.5219C92.144 89.8559 90.954 89.5219 90.192 89.4269Z" fill="#4CCC4C"/>
</svg>
