<svg width="13.999939" height="11.370605" viewBox="0 0 13.9999 11.3706" fill="none" xmlns="http://www.w3.org/2000/svg" xmlns:xlink="http://www.w3.org/1999/xlink">
	<desc>
			Created with Pixso.
	</desc>
	<defs/>
	<path id="Vector" d="M12.5609 2.83398C12.5698 2.95801 12.5698 3.08252 12.5698 3.20703C12.5698 7 9.68274 11.3706 4.4061 11.3706C2.78046 11.3706 1.27029 10.8999 0 10.0825C0.230988 10.1089 0.453033 10.1182 0.692902 10.1182C2.03424 10.1182 3.26901 9.66504 4.25507 8.89209C2.99365 8.86523 1.93655 8.03955 1.57233 6.90234C1.75 6.92871 1.92764 6.94678 2.11423 6.94678C2.37183 6.94678 2.62946 6.91113 2.86929 6.84912C1.55457 6.58252 0.568512 5.42773 0.568512 4.0332L0.568512 3.99756C0.95047 4.21045 1.39465 4.34375 1.86545 4.36182C1.09259 3.84619 0.586273 2.9668 0.586273 1.97217C0.586273 1.43896 0.728394 0.950684 0.977142 0.523926C2.38956 2.26514 4.51266 3.40234 6.89337 3.52686C6.84897 3.31348 6.8223 3.09131 6.8223 2.86914C6.8223 1.28809 8.1015 0 9.69159 0C10.5177 0 11.2639 0.34668 11.788 0.90625C12.4365 0.781738 13.0583 0.541992 13.6091 0.213379C13.3959 0.879395 12.9428 1.43896 12.3477 1.79443C12.9251 1.73242 13.4847 1.57227 13.9999 1.3501C13.6092 1.91895 13.1205 2.42529 12.5609 2.83398Z" fill="#FFFFFF" fill-opacity="1.000000" fill-rule="nonzero"/>
</svg>
