<svg width="16.000183" height="15.283691" viewBox="0 0 16.0002 15.2837" fill="none" xmlns="http://www.w3.org/2000/svg" xmlns:xlink="http://www.w3.org/1999/xlink">
	<desc>
			Created with Pixso.
	</desc>
	<defs/>
	<path id="Vector" d="M15.1807 5.11963L10.8115 4.48364L8.85895 0.531738C8.68341 0.178467 8.34103 0 7.99863 0C7.65836 0 7.31833 0.176025 7.14221 0.531738L5.18909 4.4834L0.81955 5.1189C0.0359497 5.23218 -0.278076 6.19604 0.289978 6.74829L3.45087 9.823L2.70282 14.1658C2.59656 14.7859 3.09177 15.2837 3.64639 15.2837C3.79358 15.2837 3.94492 15.2485 4.09027 15.1716L7.99924 13.1216L11.9079 15.1721C12.053 15.2483 12.204 15.283 12.3506 15.283C12.9058 15.283 13.4019 14.7871 13.2957 14.1665L12.5485 9.82349L15.71 6.74951C16.2784 6.19727 15.9643 5.23315 15.1807 5.11963ZM11.5467 8.79736L11.0058 9.32324L11.1336 10.0659L11.7162 13.4526L8.6676 11.8528L7.99954 11.5024L8.00043 2.03394L9.52371 5.11743L9.85745 5.79272L10.604 5.90161L14.0139 6.39795L11.5467 8.79736Z" fill="#FFB238" fill-opacity="1.000000" fill-rule="nonzero"/>
</svg>
