<svg width="144" height="144" viewBox="0 0 144 144" fill="none" xmlns="http://www.w3.org/2000/svg">
<path d="M69.0471 1.55217C67.9518 1.67123 67.3088 3.09997 63.356 18.3636C61.2129 26.6026 59.2365 34.4845 59.046 34.4606C59.046 34.4606 59.0222 34.4368 59.0222 34.3654C59.0222 33.27 56.0457 31.1031 46.8303 24.6024C37.615 18.1017 34.9004 13.4821 34.3528 14.8394C33.8051 16.1967 39.2343 28.9362 41.1392 34.3654C43.0442 39.7946 47.64 51.7007 47.64 51.7007C47.64 51.7007 36.2577 52.7961 30.0189 54.4153C23.7801 56.0345 2.63489 57.9157 3.4445 61.1779C4.25412 64.4402 21.8752 72.0125 28.114 75.8225C34.3527 79.6324 43.2823 82.0613 43.2823 82.0613C43.2823 82.0613 31.3524 93.7054 26.4709 100.23C21.5894 106.731 13.1837 119.47 16.1602 118.399C19.1367 117.327 59.5223 101.587 69.0233 96.4438C69.0233 96.4438 71.7379 121.923 73.0952 130.591C74.4525 139.258 74.7144 145.497 78.5244 140.901C82.3343 136.305 89.097 111.636 91.5259 106.469C93.9547 101.325 98.8362 87.2285 98.8362 87.2285C98.8362 87.2285 111.314 93.7292 119.172 96.9915C127.03 100.254 138.96 109.183 140.031 106.755C141.127 104.326 124.577 82.0851 120.791 75.8463C117.005 69.6075 106.98 55.2487 106.98 55.2487C106.98 55.2487 126.506 27.3408 129.483 18.3874C129.697 17.7445 129.935 16.792 129.435 16.1729C127.578 13.7678 117.576 19.2208 99.9316 26.7931C93.8118 29.4125 88.8827 31.3889 86.1205 32.4842C84.406 29.2458 81.7152 24.0547 78.5244 17.5778C72.6904 5.67168 71.0474 1.31405 69.0471 1.55217Z" fill="url(#paint0_linear_49_1305)"/>
<defs>
<linearGradient id="paint0_linear_49_1305" x1="3.42188" y1="71.9991" x2="140.083" y2="71.9991" gradientUnits="userSpaceOnUse">
<stop stop-color="#00C4CC"/>
<stop offset="1" stop-color="#8B3DFF"/>
</linearGradient>
</defs>
</svg>
