<svg width="255.000000" height="98.000000" viewBox="0 0 255 98" fill="none" xmlns="http://www.w3.org/2000/svg" xmlns:xlink="http://www.w3.org/1999/xlink">
	<desc>
			Created with Pixso.
	</desc>
	<defs/>
	<rect id="Rectangle 14" width="255.000000" height="98.000000" fill="#FFFFFF" fill-opacity="0"/>
	<path id="Vector" d="M90.2446 33.7061L91.9418 31.9966C95.2745 28.6396 100.7 28.5566 104.052 31.8943C105.322 33.1616 106.166 34.7981 106.466 36.5737C106.765 38.3491 106.505 40.1746 105.721 41.7932C105.346 42.5667 105.219 43.4387 105.359 44.2881C105.5 45.1375 105.9 45.9214 106.504 46.5305C107.614 45.4092 108.495 44.0784 109.095 42.614C109.694 41.1497 110.002 39.5808 110 37.9968C109.998 36.4126 109.686 34.8447 109.082 33.3821C108.478 31.9194 107.593 30.5913 106.479 29.4729C101.792 24.7783 94.1844 24.8718 89.5105 29.5796L73.3337 45.8735L72.0039 44.5339C68.6146 41.1201 68.593 35.5396 72.0421 32.1863C73.3187 30.949 74.9453 30.1411 76.6971 29.8745C78.4491 29.6079 80.2399 29.8955 81.8225 30.6978C82.5449 31.0706 83.3658 31.2041 84.168 31.0789C84.9701 30.9539 85.7124 30.5764 86.2891 30.001L86.3302 29.9597C86.3431 29.9468 86.3533 29.9316 86.3602 29.9148C86.3672 29.8979 86.3707 29.8799 86.3707 29.8616C86.3707 29.8433 86.3672 29.8254 86.3602 29.8086C86.3533 29.7917 86.3431 29.7764 86.3302 29.7637C84.1038 27.5771 81.1201 26.3491 78.0107 26.3391C74.9012 26.3293 71.9099 27.5383 69.6697 29.7104C64.8441 34.4028 64.8613 42.2058 69.6042 46.9832L85.7761 63.2727L84.0583 65.0032C80.7256 68.3601 75.2996 68.4431 71.9478 65.1055C70.6777 63.8381 69.8336 62.2017 69.5342 60.426C69.2349 58.6506 69.495 56.8254 70.2783 55.2063C70.6542 54.4331 70.7809 53.5608 70.6406 52.7117C70.5005 51.8623 70.1005 51.0784 69.4965 50.4692C68.3857 51.5906 67.5052 52.9214 66.9054 54.3855C66.3054 55.8501 65.9978 57.4189 66 59.0029C66.0022 60.5869 66.3143 62.1553 66.9183 63.6177C67.5223 65.0803 68.4066 66.4084 69.5205 67.5269C74.2073 72.2214 81.8156 72.1284 86.4895 67.4204L102.687 51.1047L104.022 52.4492C107.355 55.8062 107.437 61.2715 104.124 64.6477C102.865 65.9272 101.241 66.7771 99.4781 67.0791C97.7156 67.3806 95.9034 67.1184 94.2961 66.3291C93.5282 65.9504 92.6619 65.8228 91.8185 65.9644C90.975 66.1057 90.1964 66.509 89.5917 67.1179C90.7051 68.2368 92.0261 69.1238 93.4797 69.728C94.9336 70.3323 96.4911 70.6421 98.0638 70.6399C99.6364 70.6375 101.193 70.3232 102.645 69.7148C104.097 69.1064 105.416 68.2156 106.526 67.0938C111.187 62.3728 111.094 54.7092 106.42 50.0015L90.2446 33.7061ZM88.191 60.8391L75.7493 48.3069L87.8289 36.1396L100.271 48.6719L88.191 60.8391Z" fill="#6D7D7D" fill-opacity="1.000000" fill-rule="nonzero"/>
	<path id="Fuda Furniture" d="M122.552 40.624L122.552 45.552L120.2 45.552L120.2 34.096L128.248 34.096L128.248 36.064L122.552 36.064L122.552 38.656L127.576 38.656L127.576 40.624L122.552 40.624ZM137.121 45.552L134.929 45.552L134.929 44.352C134.332 45.2693 133.484 45.728 132.385 45.728C131.414 45.728 130.678 45.44 130.177 44.864C129.75 44.3627 129.537 43.6747 129.537 42.8L129.537 37.072L131.745 37.072L131.745 42.336C131.745 43.3493 132.214 43.856 133.153 43.856C133.686 43.856 134.113 43.7067 134.433 43.408C134.764 43.1093 134.929 42.704 134.929 42.192L134.929 37.072L137.121 37.072L137.121 45.552ZM146.795 34.096L146.795 45.552L144.587 45.552L144.587 44.608C144.075 45.3547 143.301 45.728 142.267 45.728C141.147 45.728 140.245 45.2587 139.563 44.32C138.976 43.52 138.683 42.5227 138.683 41.328C138.683 39.9093 139.056 38.7893 139.803 37.968C140.453 37.2533 141.269 36.896 142.251 36.896C143.285 36.896 144.064 37.2907 144.587 38.08L144.587 34.096L146.795 34.096ZM142.747 38.704C142.192 38.704 141.744 38.944 141.403 39.424C141.061 39.904 140.891 40.5333 140.891 41.312C140.891 42.08 141.056 42.704 141.387 43.184C141.728 43.6533 142.181 43.888 142.747 43.888C143.312 43.888 143.76 43.6533 144.091 43.184C144.432 42.7147 144.603 42.0907 144.603 41.312C144.603 40.5227 144.432 39.8933 144.091 39.424C143.749 38.944 143.301 38.704 142.747 38.704ZM156.115 44.992L156.115 45.552L153.715 45.552C153.555 45.3493 153.47 45.0613 153.459 44.688C152.872 45.3813 152.019 45.728 150.899 45.728C150.078 45.728 149.416 45.4773 148.915 44.976C148.51 44.5707 148.307 44.0107 148.307 43.296C148.307 42.2293 148.734 41.472 149.587 41.024C149.95 40.832 150.67 40.64 151.747 40.448L153.475 40.128L153.459 39.52C153.448 38.9547 153.022 38.672 152.179 38.672C151.635 38.672 151.251 38.7573 151.027 38.928C150.814 39.088 150.68 39.3867 150.627 39.824L148.515 39.824C148.643 37.872 149.848 36.896 152.131 36.896C153.39 36.896 154.296 37.12 154.851 37.568C155.352 37.9947 155.603 38.64 155.603 39.504L155.603 44.24C155.603 44.624 155.774 44.8747 156.115 44.992ZM153.475 41.456L151.859 41.824C151.4 41.9307 151.059 42.0853 150.835 42.288C150.622 42.4907 150.515 42.7413 150.515 43.04C150.515 43.648 150.91 43.952 151.699 43.952C152.84 43.952 153.427 43.328 153.459 42.08L153.475 41.456ZM122.552 58.624L122.552 63.552L120.2 63.552L120.2 52.096L128.248 52.096L128.248 54.064L122.552 54.064L122.552 56.656L127.576 56.656L127.576 58.624L122.552 58.624ZM137.121 63.552L134.929 63.552L134.929 62.352C134.332 63.2693 133.484 63.728 132.385 63.728C131.414 63.728 130.678 63.44 130.177 62.864C129.75 62.3627 129.537 61.6747 129.537 60.8L129.537 55.072L131.745 55.072L131.745 60.336C131.745 61.3493 132.214 61.856 133.153 61.856C133.686 61.856 134.113 61.7067 134.433 61.408C134.764 61.1093 134.929 60.704 134.929 60.192L134.929 55.072L137.121 55.072L137.121 63.552ZM139.211 55.072L141.419 55.072L141.419 56.688C141.696 55.4933 142.485 54.896 143.787 54.896C143.989 54.896 144.133 54.896 144.219 54.896L144.235 57.072C143.968 57.0187 143.691 56.992 143.403 56.992C142.677 56.992 142.176 57.1253 141.899 57.392C141.579 57.6907 141.419 58.2293 141.419 59.008L141.419 63.552L139.211 63.552L139.211 55.072ZM145.32 55.072L147.528 55.072L147.528 56.272C148.125 55.3547 148.968 54.896 150.056 54.896C151.027 54.896 151.763 55.184 152.264 55.76C152.691 56.272 152.904 56.9653 152.904 57.84L152.904 63.552L150.712 63.552L150.712 58.288C150.712 57.2747 150.237 56.768 149.288 56.768C148.755 56.768 148.328 56.9227 148.008 57.232C147.688 57.5307 147.528 57.9307 147.528 58.432L147.528 63.552L145.32 63.552L145.32 55.072ZM157.169 55.072L157.169 63.552L154.962 63.552L154.962 55.072L157.169 55.072ZM156.049 52.16C156.337 52.16 156.577 52.2613 156.77 52.464C156.972 52.6667 157.074 52.912 157.074 53.2C157.074 53.488 156.972 53.7333 156.77 53.936C156.577 54.128 156.337 54.224 156.049 54.224C155.762 54.224 155.516 54.128 155.314 53.936C155.111 53.7333 155.009 53.488 155.009 53.2C155.009 52.912 155.111 52.6667 155.314 52.464C155.516 52.2613 155.762 52.16 156.049 52.16ZM163.32 55.072L163.32 56.528L161.833 56.528L161.833 61.248C161.833 61.5573 161.886 61.7707 161.992 61.888C162.11 62.0053 162.318 62.064 162.617 62.064C162.862 62.064 163.176 61.968 163.561 61.776C163.592 61.7547 163.619 61.7387 163.641 61.728L163.896 63.232C163.225 63.5627 162.521 63.728 161.785 63.728C160.344 63.728 159.624 63.0667 159.624 61.744L159.624 56.528L158.536 56.528L158.536 55.072L159.624 55.072L159.624 53.664L161.833 52.4L161.833 55.072L163.32 55.072ZM172.824 63.552L170.632 63.552L170.632 62.352C170.035 63.2693 169.187 63.728 168.088 63.728C167.117 63.728 166.381 63.44 165.88 62.864C165.453 62.3627 165.24 61.6747 165.24 60.8L165.24 55.072L167.448 55.072L167.448 60.336C167.448 61.3493 167.917 61.856 168.856 61.856C169.389 61.856 169.816 61.7067 170.136 61.408C170.467 61.1093 170.632 60.704 170.632 60.192L170.632 55.072L172.824 55.072L172.824 63.552ZM174.914 55.072L177.122 55.072L177.122 56.688C177.399 55.4933 178.189 54.896 179.49 54.896C179.693 54.896 179.837 54.896 179.922 54.896L179.938 57.072C179.671 57.0187 179.394 56.992 179.106 56.992C178.381 56.992 177.879 57.1253 177.602 57.392C177.282 57.6907 177.122 58.2293 177.122 59.008L177.122 63.552L174.914 63.552L174.914 55.072ZM188.399 59.888L182.703 59.888C182.735 60.5707 182.842 61.056 183.023 61.344C183.333 61.8133 183.818 62.048 184.479 62.048C185.301 62.048 185.85 61.7067 186.127 61.024L188.303 61.024C188.058 61.856 187.578 62.5173 186.863 63.008C186.159 63.488 185.333 63.728 184.383 63.728C183.093 63.728 182.101 63.296 181.407 62.432C180.799 61.6747 180.495 60.6773 180.495 59.44C180.495 57.936 180.89 56.7733 181.679 55.952C182.373 55.248 183.285 54.896 184.415 54.896C185.279 54.896 186.037 55.1093 186.687 55.536C187.338 55.9627 187.802 56.56 188.079 57.328C188.303 57.9253 188.415 58.6453 188.415 59.488C188.415 59.5947 188.41 59.728 188.399 59.888ZM186.111 58.432C186.005 57.1947 185.434 56.576 184.399 56.576C183.429 56.576 182.874 57.1947 182.735 58.432L186.111 58.432Z" fill="#6D7D7D" fill-opacity="1.000000" fill-rule="evenodd"/>
</svg>
