<svg width="255.000000" height="98.000000" viewBox="0 0 255 98" fill="none" xmlns="http://www.w3.org/2000/svg" xmlns:xlink="http://www.w3.org/1999/xlink">
	<desc>
			Created with Pixso.
	</desc>
	<defs/>
	<rect id="Rectangle 13" width="255.000000" height="98.000000" fill="#FFFFFF" fill-opacity="0"/>
	<path id="Reys Ceramics" d="M64.8379 58.984C63.9845 58.984 63.2485 58.6427 62.6299 57.96C62.0325 57.2773 61.5099 56.4027 61.0619 55.336C60.6139 54.2693 60.2192 53.1707 59.8779 52.04C59.0885 49.4587 58.7579 47.9227 58.8859 47.432C57.6272 49.1173 56.5392 50.5253 55.6219 51.656C54.7045 52.7653 53.9579 53.5973 53.3819 54.152C50.8645 56.584 48.3152 57.8 45.7339 57.8C44.9659 57.8 44.3365 57.64 43.8459 57.32C43.3339 57 43.0779 56.4667 43.0779 55.72C43.0779 55.2507 43.1845 54.7493 43.3979 54.216C43.6112 53.6613 43.8779 53.1387 44.1979 52.648C44.5179 52.1573 44.8379 51.752 45.1579 51.432C45.8619 50.728 46.4485 50.376 46.9179 50.376C47.0032 50.376 47.0459 50.3973 47.0459 50.44C47.0459 50.5467 46.8859 50.728 46.5659 50.984C45.8192 51.5813 45.2005 52.2747 44.7099 53.064C44.2192 53.832 43.9739 54.536 43.9739 55.176C43.9739 56.3707 44.8165 56.936 46.5019 56.872C49.2539 56.7653 53.0725 53.4373 57.9579 46.888C58.2352 46.5253 58.4699 46.2693 58.6619 46.12L58.1499 45.928C57.8725 46.0347 57.6485 46.088 57.4779 46.088C57.0299 46.088 56.8059 45.9067 56.8059 45.544C56.8059 45.0533 57.1365 44.7333 57.7979 44.584C58.2032 44.4773 58.7259 44.6587 59.3659 45.128C60.1979 44.1893 60.9979 43.2933 61.7659 42.44C62.5552 41.5867 63.2699 40.8933 63.9099 40.36C64.5499 39.8053 65.0619 39.528 65.4459 39.528C65.9579 39.528 66.2139 39.7627 66.2139 40.232C66.2139 40.424 66.1605 40.6267 66.0539 40.84C65.9685 41.032 65.8619 41.128 65.7339 41.128C65.6059 41.1493 65.5419 41.0853 65.5419 40.936C65.5419 40.8293 65.6059 40.7013 65.7339 40.552L65.7339 40.424C65.7339 40.296 65.6912 40.2 65.6059 40.136C65.0512 39.7733 63.3445 41.576 60.4859 45.544C60.7205 45.5653 60.9659 45.5867 61.2219 45.608C61.4992 45.608 61.7872 45.608 62.0859 45.608C67.0352 45.608 70.1285 44.328 71.3659 41.768C71.6219 41.2133 71.7499 40.7013 71.7499 40.232C71.7499 39.2933 71.3125 38.472 70.4379 37.768C69.6485 37.128 68.6032 36.7013 67.3019 36.488C66.0219 36.2533 64.7419 36.136 63.4619 36.136C60.6245 36.136 57.6059 36.9147 54.4059 38.472C50.5232 40.3707 48.5819 42.6 48.5819 45.16C48.5819 45.992 49.1259 46.408 50.2139 46.408C51.2165 46.408 52.3472 46.0027 53.6059 45.192C54.6939 44.4667 55.4405 43.7307 55.8459 42.984C55.9952 42.7067 56.1339 42.568 56.2619 42.568C56.4112 42.568 56.4539 42.6533 56.3899 42.824C55.9845 44.0187 55.0779 45.0427 53.6699 45.896C52.3045 46.728 50.8965 47.144 49.4459 47.144C47.7179 47.144 46.9179 46.5893 47.0459 45.48C47.3659 42.6853 49.0832 40.3067 52.1979 38.344C55.2912 36.4027 59.0245 35.432 63.3979 35.432C65.0619 35.432 66.6725 35.5813 68.2299 35.88C69.8085 36.1787 71.0885 36.7333 72.0699 37.544C73.0939 38.3973 73.6059 39.4 73.6059 40.552C73.6059 41.0427 73.4885 41.576 73.2539 42.152C72.8912 42.984 72.3365 43.6987 71.5899 44.296C70.8432 44.872 69.9792 45.3413 68.9979 45.704C68.0165 46.0667 66.9819 46.3333 65.8939 46.504C64.8059 46.6747 63.7499 46.76 62.7259 46.76C62.1712 46.76 61.6379 46.7387 61.1259 46.696C60.6352 46.6533 60.1765 46.5893 59.7499 46.504C59.8779 46.9093 60.1019 47.6453 60.4219 48.712C60.7419 49.7787 61.1472 51.1653 61.6379 52.872C61.7872 53.3413 61.9899 53.8533 62.2459 54.408C62.5232 54.9627 62.8325 55.4853 63.1739 55.976C63.5152 56.4667 63.8779 56.872 64.2619 57.192C64.6672 57.512 65.0725 57.672 65.4779 57.672C66.3739 57.672 67.1205 56.7653 67.7179 54.952C67.8245 54.5253 67.9419 54.312 68.0699 54.312C68.1765 54.312 68.2725 54.5147 68.3579 54.92C68.3792 54.984 68.3899 55.0693 68.3899 55.176C68.3899 55.7307 68.0912 56.4133 67.4939 57.224C66.7045 58.3973 65.8192 58.984 64.8379 58.984ZM70.1164 55.816C69.4337 55.816 68.815 55.6027 68.2604 55.176C67.7057 54.728 67.4284 54.1413 67.4284 53.416C67.4284 51.9013 68.3564 50.1733 70.2124 48.232C72.111 46.2693 73.807 45.288 75.3004 45.288C75.791 45.288 76.1857 45.4267 76.4844 45.704C76.8044 45.96 76.9644 46.28 76.9644 46.664C76.9644 47.8587 76.015 49.032 74.1164 50.184C72.431 51.208 71.0124 51.72 69.8604 51.72C69.6897 51.72 69.5404 51.6987 69.4124 51.656C69.0924 52.232 68.9324 52.84 68.9324 53.48C68.9324 54.5893 69.455 55.144 70.5004 55.144C71.567 55.144 72.943 54.4293 74.6284 53C75.9297 51.9547 77.039 50.8453 77.9564 49.672C78.1484 49.416 78.319 49.288 78.4684 49.288C78.5964 49.288 78.6604 49.352 78.6604 49.48C78.6604 49.608 78.575 49.7893 78.4044 50.024C77.807 50.8133 77.167 51.5387 76.4844 52.2C75.8017 52.8613 75.0657 53.4693 74.2764 54.024C72.6337 55.2187 71.247 55.816 70.1164 55.816ZM70.3084 51.016C71.119 51.016 72.175 50.6107 73.4764 49.8C73.903 49.5013 74.319 49.1707 74.7244 48.808C75.151 48.424 75.4924 48.04 75.7484 47.656C76.0257 47.272 76.1644 46.9307 76.1644 46.632C76.1644 46.3547 75.9404 46.216 75.4924 46.216C74.8524 46.216 73.9564 46.696 72.8044 47.656C72.2497 48.1253 71.7164 48.6373 71.2044 49.192C70.6924 49.7467 70.255 50.3333 69.8924 50.952C70.0204 50.9947 70.159 51.016 70.3084 51.016ZM77.4391 61.96C76.7565 61.96 76.1591 61.672 75.6471 61.096C75.1351 60.4987 74.8898 59.8373 74.9111 59.112C75.1671 59.432 75.5085 59.8053 75.9351 60.232C76.4898 60.7653 77.0338 61.032 77.5671 61.032C78.7831 61.032 80.0951 60.0613 81.5031 58.12C81.9938 57.4373 82.4951 56.6373 83.0071 55.72C83.5405 54.824 84.0418 53.8213 84.5111 52.712L85.7271 49.768L81.0231 53.448C79.5725 54.5787 78.4098 55.144 77.5351 55.144C77.0658 55.144 76.6925 54.9733 76.4151 54.632C76.1378 54.2907 75.9991 53.9387 75.9991 53.576C75.9991 52.6587 76.7885 51.1547 78.3671 49.064C79.9458 46.952 81.1298 45.896 81.9191 45.896C82.5805 45.896 82.9111 46.1413 82.9111 46.632C82.9111 46.824 81.9618 47.9333 80.0631 49.96C78.1858 51.9653 77.2471 53.32 77.2471 54.024C77.2471 54.3013 77.4285 54.44 77.7911 54.44C78.4738 54.44 79.9565 53.5547 82.2391 51.784C83.1778 51.0373 84.0098 50.3547 84.7351 49.736C85.4605 49.1173 86.0685 48.5627 86.5591 48.072C86.7298 47.8587 86.9005 47.656 87.0711 47.464C87.2418 47.2507 87.4018 47.0373 87.5511 46.824C87.9565 46.3547 88.3618 46.12 88.7671 46.12C89.3431 46.12 89.6311 46.3547 89.6311 46.824C89.6311 46.9093 89.1831 47.6133 88.2871 48.936C87.8178 49.6613 87.4445 50.2267 87.1671 50.632C86.8898 51.016 86.7298 51.2613 86.6871 51.368C86.0258 52.648 85.0125 54.5147 83.6471 56.968C81.5778 60.296 79.5085 61.96 77.4391 61.96ZM92.2269 55.464C91.2242 55.464 90.4775 55.1333 89.9869 54.472C89.5175 53.8107 89.1335 52.8933 88.8349 51.72C88.4509 52.104 88.1842 52.296 88.0349 52.296C87.9282 52.296 87.8749 52.2107 87.8749 52.04C87.8749 51.912 87.9282 51.7947 88.0349 51.688C88.0349 51.688 88.3015 51.3573 88.8349 50.696C89.3895 50.0347 90.3175 49.1067 91.6189 47.912L95.6509 44.136C96.2055 43.6027 96.6429 43.1973 96.9629 42.92C97.3042 42.6427 97.5495 42.504 97.6989 42.504C98.3815 42.504 98.7229 42.76 98.7229 43.272C98.7229 43.528 98.5842 43.8267 98.3069 44.168C98.0935 44.424 97.9335 44.6267 97.8269 44.776C97.7415 44.904 97.6882 44.9787 97.6669 45C97.2829 45.6613 96.9309 46.8453 96.6109 48.552C96.3762 49.8107 96.1735 50.8453 96.0029 51.656C95.8322 52.4667 95.6935 53.0533 95.5869 53.416C96.4829 53.3947 97.3682 53.1173 98.2429 52.584C99.1175 52.0507 100.056 51.176 101.059 49.96C101.102 49.9173 101.166 49.8533 101.251 49.768C101.336 49.6827 101.422 49.64 101.507 49.64C101.635 49.64 101.699 49.6933 101.699 49.8C101.699 49.9067 101.667 50.0133 101.603 50.12C101.539 50.2267 101.475 50.3227 101.411 50.408C100.75 51.1973 100.131 51.848 99.5549 52.36C98.9789 52.8507 98.3709 53.2453 97.7309 53.544C97.0909 53.8213 96.3335 54.056 95.4589 54.248L94.4349 54.92C94.1575 55.112 93.8269 55.2507 93.4429 55.336C93.0589 55.4213 92.6535 55.464 92.2269 55.464ZM92.6109 53.832C93.1015 53.832 93.5069 53.7147 93.8269 53.48C94.0615 53.352 94.2855 53 94.4989 52.424C94.7335 51.8267 94.9575 51.0907 95.1709 50.216C95.3415 49.4693 95.4695 48.744 95.5549 48.04C95.6615 47.3147 95.7575 46.6213 95.8429 45.96L95.9709 44.872C95.4802 45.2347 94.8615 45.7573 94.1149 46.44C93.3682 47.1227 92.6322 47.8373 91.9069 48.584C91.1815 49.3307 90.7122 49.8853 90.4989 50.248C90.2855 50.5893 90.1682 50.8453 90.1469 51.016C90.0615 51.8693 90.2642 52.552 90.7549 53.064C91.2669 53.576 91.8855 53.832 92.6109 53.832ZM114.807 57.48C112.439 57.48 110.604 56.8507 109.303 55.592C108.023 54.3333 107.383 52.7013 107.383 50.696C107.383 48.8613 107.831 47.0693 108.727 45.32C109.644 43.5707 110.796 41.96 112.183 40.488C113.313 39.2933 114.604 38.2587 116.055 37.384C117.527 36.5093 119.063 35.8267 120.663 35.336C122.284 34.8453 123.863 34.6 125.399 34.6C126.615 34.6 127.713 34.7707 128.695 35.112C129.676 35.432 130.455 35.944 131.031 36.648C131.607 37.352 131.895 38.2693 131.895 39.4C131.895 40.4027 131.649 41.3413 131.159 42.216C130.689 43.0693 130.049 43.816 129.239 44.456C128.449 45.096 127.575 45.5973 126.615 45.96C125.655 46.3227 124.684 46.504 123.703 46.504C122.423 46.504 121.345 46.216 120.471 45.64C119.596 45.0427 119.159 44.296 119.159 43.4C119.159 42.248 119.895 41.1173 121.367 40.008C121.623 39.816 121.825 39.72 121.975 39.72C122.081 39.72 122.135 39.7627 122.135 39.848C122.135 40.0613 121.964 40.232 121.623 40.36C120.428 41.32 119.831 42.2907 119.831 43.272C119.831 43.976 120.151 44.5733 120.791 45.064C121.431 45.5333 122.231 45.768 123.191 45.768C124.044 45.768 124.897 45.5867 125.751 45.224C126.625 44.8613 127.425 44.3707 128.151 43.752C128.876 43.1333 129.452 42.44 129.879 41.672C130.327 40.8827 130.551 40.0613 130.551 39.208C130.551 37.8213 130.081 36.808 129.143 36.168C128.204 35.528 127.009 35.208 125.559 35.208C123.916 35.208 122.284 35.5173 120.663 36.136C119.063 36.7547 117.559 37.608 116.151 38.696C114.743 39.784 113.484 41.032 112.375 42.44C110.156 45.2347 109.047 47.8587 109.047 50.312C109.047 51.6133 109.345 52.7227 109.943 53.64C110.54 54.536 111.361 55.2187 112.407 55.688C113.473 56.1573 114.689 56.392 116.055 56.392C118.081 56.392 120.044 55.9547 121.943 55.08C123.841 54.184 125.463 52.9893 126.807 51.496C127.169 51.112 127.436 50.92 127.607 50.92C127.735 50.92 127.799 51.016 127.799 51.208C127.799 51.464 127.681 51.7093 127.447 51.944C126.721 52.712 125.857 53.4267 124.855 54.088C123.852 54.7493 122.775 55.336 121.623 55.848C120.492 56.36 119.34 56.7547 118.167 57.032C116.993 57.3307 115.873 57.48 114.807 57.48ZM131.241 55.816C130.559 55.816 129.94 55.6027 129.385 55.176C128.831 54.728 128.553 54.1413 128.553 53.416C128.553 51.9013 129.481 50.1733 131.337 48.232C133.236 46.2693 134.932 45.288 136.425 45.288C136.916 45.288 137.311 45.4267 137.609 45.704C137.929 45.96 138.089 46.28 138.089 46.664C138.089 47.8587 137.14 49.032 135.241 50.184C133.556 51.208 132.137 51.72 130.985 51.72C130.815 51.72 130.665 51.6987 130.537 51.656C130.217 52.232 130.057 52.84 130.057 53.48C130.057 54.5893 130.58 55.144 131.625 55.144C132.692 55.144 134.068 54.4293 135.753 53C137.055 51.9547 138.164 50.8453 139.081 49.672C139.273 49.416 139.444 49.288 139.593 49.288C139.721 49.288 139.785 49.352 139.785 49.48C139.785 49.608 139.7 49.7893 139.529 50.024C138.932 50.8133 138.292 51.5387 137.609 52.2C136.927 52.8613 136.191 53.4693 135.401 54.024C133.759 55.2187 132.372 55.816 131.241 55.816ZM131.433 51.016C132.244 51.016 133.3 50.6107 134.601 49.8C135.028 49.5013 135.444 49.1707 135.849 48.808C136.276 48.424 136.617 48.04 136.873 47.656C137.151 47.272 137.289 46.9307 137.289 46.632C137.289 46.3547 137.065 46.216 136.617 46.216C135.977 46.216 135.081 46.696 133.929 47.656C133.375 48.1253 132.841 48.6373 132.329 49.192C131.817 49.7467 131.38 50.3333 131.017 50.952C131.145 50.9947 131.284 51.016 131.433 51.016ZM144.356 55.56C143.439 55.56 142.809 55.3253 142.468 54.856C142.127 54.3653 141.956 53.7147 141.956 52.904C141.956 52.008 142.233 50.9413 142.788 49.704C143.001 49.2133 143.225 48.776 143.46 48.392C143.695 47.9867 143.94 47.6133 144.196 47.272C144.111 47.2933 144.036 47.304 143.972 47.304C143.908 47.304 143.844 47.304 143.78 47.304C143.268 47.304 142.841 46.9413 142.5 46.216L140.132 49.288C138.873 50.9307 138.105 51.752 137.828 51.752C137.721 51.752 137.668 51.7093 137.668 51.624C137.668 51.5173 137.721 51.3787 137.828 51.208C137.892 51.08 138.02 50.9093 138.212 50.696C139.023 49.7573 139.769 48.8293 140.452 47.912C141.135 46.9947 141.7 46.0987 142.148 45.224C142.639 43.368 143.257 42.44 144.004 42.44C144.495 42.44 144.74 42.664 144.74 43.112C144.74 43.5173 144.473 44.0507 143.94 44.712C143.428 45.3733 143.172 45.7147 143.172 45.736C143.172 46.184 143.503 46.408 144.164 46.408C144.548 46.408 144.975 46.2693 145.444 45.992L146.276 45.48C146.319 45.4587 146.383 45.448 146.468 45.448C146.724 45.448 146.948 45.5547 147.14 45.768C147.332 45.9813 147.396 46.1733 147.332 46.344L145.124 49.128C143.759 50.8773 143.076 52.2853 143.076 53.352C143.076 54.312 143.545 54.792 144.484 54.792C145.124 54.792 145.807 54.6 146.532 54.216C147.279 53.832 147.993 53.3627 148.676 52.808C149.38 52.232 149.967 51.6773 150.436 51.144L151.204 50.248C151.247 50.2053 151.3 50.152 151.364 50.088C151.428 50.024 151.481 49.992 151.524 49.992C151.673 49.992 151.748 50.0667 151.748 50.216C151.748 50.2587 151.727 50.3333 151.684 50.44C151.641 50.5467 151.567 50.664 151.46 50.792L150.436 51.944C149.945 52.4987 149.337 53.064 148.612 53.64C147.908 54.1947 147.172 54.6533 146.404 55.016C145.657 55.3787 144.975 55.56 144.356 55.56ZM152.566 55.56C152.054 55.56 151.542 55.3787 151.03 55.016C150.518 54.6533 150.23 54.2267 150.166 53.736C149.953 52.0933 150.987 50.1413 153.27 47.88C155.531 45.6187 157.569 44.488 159.382 44.488C159.873 44.488 160.257 44.6053 160.534 44.84C160.683 44.9893 160.79 45.192 160.854 45.448C160.939 45.704 161.003 45.832 161.046 45.832C161.131 45.832 161.206 45.8213 161.27 45.8C161.334 45.7573 161.409 45.736 161.494 45.736C161.75 45.736 161.974 45.832 162.166 46.024C162.358 46.216 162.465 46.3867 162.486 46.536C162.507 46.5787 161.825 47.6347 160.438 49.704C159.051 51.7307 158.422 53.1067 158.55 53.832C158.657 54.3227 158.891 54.568 159.254 54.568C160.363 54.568 162.39 52.7333 165.334 49.064C165.398 48.9787 165.462 48.936 165.526 48.936C165.633 48.936 165.686 49.0107 165.686 49.16C165.686 49.3307 165.59 49.544 165.398 49.8C162.689 53.448 160.609 55.272 159.158 55.272C158.966 55.272 158.785 55.24 158.614 55.176C157.675 54.8133 157.206 54.1093 157.206 53.064C157.206 52.7013 157.249 52.3387 157.334 51.976L155.35 53.896C154.753 54.4933 154.209 54.92 153.718 55.176C153.249 55.432 152.865 55.56 152.566 55.56ZM152.278 54.856C153.515 54.856 155.201 53.5013 157.334 50.792L160.726 46.12C160.555 45.8213 160.278 45.672 159.894 45.672C158.593 45.672 156.833 46.7173 154.614 48.808C152.31 50.9413 151.275 52.7013 151.51 54.088C151.617 54.6 151.873 54.856 152.278 54.856ZM171.161 55.464C170.649 55.464 170.393 55.176 170.393 54.6C170.628 53.4053 171.108 52.0613 171.833 50.568C172.175 49.8427 172.516 49.128 172.857 48.424C173.22 47.72 173.572 47.0053 173.913 46.28C173.124 46.8133 172.335 47.4107 171.545 48.072C170.756 48.712 169.988 49.4373 169.241 50.248C168.367 51.1867 167.353 52.392 166.201 53.864C165.369 54.9093 164.889 55.432 164.761 55.432C164.463 55.432 164.217 55.2933 164.025 55.016C163.833 54.7387 163.737 54.504 163.737 54.312C163.737 54.0347 163.983 53.32 164.473 52.168C164.623 51.8053 164.772 51.4533 164.921 51.112C165.092 50.7493 165.252 50.3973 165.401 50.056L163.481 52.072C163.439 52.1147 163.311 52.2427 163.097 52.456C162.884 52.6693 162.713 52.776 162.585 52.776C162.479 52.776 162.425 52.7013 162.425 52.552C162.425 52.5093 162.447 52.456 162.489 52.392C162.511 52.3067 162.575 52.2107 162.681 52.104C163.001 51.784 163.332 51.4427 163.673 51.08C164.015 50.7173 164.367 50.3013 164.729 49.832C165.007 49.4693 165.401 48.936 165.913 48.232C166.447 47.5067 167.097 46.6 167.865 45.512C168.1 45.192 168.431 45.032 168.857 45.032C169.284 45.032 169.497 45.2347 169.497 45.64C169.497 45.7893 168.953 46.7813 167.865 48.616C167.311 49.5973 166.863 50.3973 166.521 51.016C166.201 51.6347 165.999 52.0933 165.913 52.392C166.383 51.88 166.937 51.304 167.577 50.664C168.239 50.024 168.996 49.3093 169.849 48.52C172.473 46.088 174.201 44.872 175.033 44.872C175.268 44.872 175.492 44.9467 175.705 45.096C175.94 45.2453 176.057 45.4373 176.057 45.672C176.057 45.7787 175.641 46.5573 174.809 48.008C173.999 49.48 173.551 50.3547 173.465 50.632C175.833 48.648 177.017 47.6453 177.017 47.624C179.023 46.0667 180.463 45.288 181.337 45.288C181.593 45.288 181.828 45.3733 182.041 45.544C182.276 45.6933 182.393 45.8747 182.393 46.088C182.393 46.1307 181.711 47.0267 180.345 48.776C178.937 50.5467 178.148 51.9973 177.977 53.128C177.892 53.896 178.287 54.28 179.161 54.28C179.695 54.28 180.441 53.9387 181.401 53.256C182.361 52.5733 183.364 51.6347 184.409 50.44C184.537 50.2907 184.676 50.152 184.825 50.024C184.975 49.8747 185.103 49.8 185.209 49.8C185.337 49.8 185.401 49.8533 185.401 49.96C185.401 50.1093 185.305 50.28 185.113 50.472C184.559 51.1333 183.897 51.816 183.129 52.52C182.383 53.224 181.636 53.8213 180.889 54.312C180.143 54.7813 179.481 55.016 178.905 55.016C177.455 55.016 176.729 54.344 176.729 53C176.729 52.5307 176.857 51.9867 177.113 51.368C177.369 50.728 177.625 50.152 177.881 49.64C178.5 48.4453 179.172 47.3893 179.897 46.472C179.215 46.8133 178.5 47.2613 177.753 47.816C177.028 48.3707 176.271 49.0213 175.481 49.768C173.647 51.56 172.388 53.3733 171.705 55.208C171.599 55.3787 171.417 55.464 171.161 55.464ZM190.869 44.392C190.506 44.392 190.186 44.2747 189.909 44.04C189.653 43.8053 189.525 43.5387 189.525 43.24C189.525 42.6427 189.93 42.344 190.741 42.344C191.04 42.344 191.338 42.4507 191.637 42.664C191.936 42.856 192.085 43.1013 192.085 43.4C192.085 43.656 191.946 43.8907 191.669 44.104C191.392 44.296 191.125 44.392 190.869 44.392ZM184.949 55.752C184.48 55.752 184.096 55.6027 183.797 55.304C183.477 54.984 183.317 54.4293 183.317 53.64C183.317 53.192 183.424 52.68 183.637 52.104C183.829 51.5067 184.074 50.9093 184.373 50.312C184.693 49.7147 185.002 49.1813 185.301 48.712C186.496 46.7707 187.477 45.7893 188.245 45.768C188.437 45.768 188.672 45.8533 188.949 46.024C189.226 46.1733 189.365 46.344 189.365 46.536C189.365 46.536 188.554 47.5813 186.933 49.672C185.333 51.7413 184.533 53.2133 184.533 54.088C184.533 54.7707 184.8 55.112 185.333 55.112C185.674 55.112 186.112 54.9733 186.645 54.696C187.2 54.3973 187.776 54.024 188.373 53.576C188.97 53.128 189.536 52.648 190.069 52.136C190.624 51.624 191.072 51.1547 191.413 50.728C191.626 50.4507 191.808 50.2587 191.957 50.152C192.128 50.0453 192.234 49.992 192.277 49.992C192.362 49.992 192.405 50.056 192.405 50.184C192.405 50.2907 192.277 50.504 192.021 50.824C191.786 51.144 191.456 51.5173 191.029 51.944C190.517 52.456 189.952 53.0107 189.333 53.608C188.714 54.2053 188.042 54.7173 187.317 55.144C186.592 55.5493 185.802 55.752 184.949 55.752ZM193.448 55.816C192.765 55.816 192.146 55.6027 191.592 55.176C191.037 54.728 190.76 54.1413 190.76 53.416C190.76 51.9013 191.688 50.1733 193.544 48.232C195.442 46.2693 197.138 45.288 198.632 45.288C199.144 45.288 199.549 45.4267 199.848 45.704C200.146 45.96 200.296 46.28 200.296 46.664C200.296 47.1973 200.168 47.688 199.912 48.136C199.613 48.6907 199.186 48.968 198.632 48.968C198.077 48.968 197.8 48.7973 197.8 48.456C197.8 48.2213 197.938 47.8693 198.216 47.4C198.514 46.9093 198.664 46.6533 198.664 46.632C198.664 46.5893 198.632 46.568 198.568 46.568C197.97 46.632 197.138 47.0693 196.072 47.88C195.602 48.2427 195.186 48.584 194.824 48.904C194.482 49.224 194.205 49.5333 193.992 49.832L192.744 51.656C192.616 51.848 192.477 52.1787 192.328 52.648C192.2 53.1173 192.136 53.4693 192.136 53.704C192.136 54.1307 192.274 54.4827 192.552 54.76C192.85 55.0373 193.224 55.176 193.672 55.176C194.738 55.176 196.146 54.4827 197.896 53.096C199.304 51.9867 200.434 50.8667 201.288 49.736C201.394 49.608 201.522 49.544 201.672 49.544C201.821 49.544 201.896 49.5867 201.896 49.672C201.896 49.736 201.842 49.8427 201.736 49.992C200.562 51.5493 199.186 52.8933 197.608 54.024C195.922 55.2187 194.536 55.816 193.448 55.816ZM203.758 55.464C202.755 55.464 202.009 55.1333 201.518 54.472C201.049 53.8107 200.665 52.8933 200.366 51.72C199.982 52.104 199.715 52.296 199.566 52.296C199.459 52.296 199.406 52.2107 199.406 52.04C199.406 51.912 199.459 51.7947 199.566 51.688C199.566 51.688 199.833 51.3573 200.366 50.696C200.921 50.0347 201.849 49.1067 203.15 47.912L207.182 44.136C207.737 43.6027 208.174 43.1973 208.494 42.92C208.835 42.6427 209.081 42.504 209.23 42.504C209.913 42.504 210.254 42.76 210.254 43.272C210.254 43.528 210.115 43.8267 209.838 44.168C209.625 44.424 209.465 44.6267 209.358 44.776C209.273 44.904 209.219 44.9787 209.198 45C208.814 45.6613 208.462 46.8453 208.142 48.552C207.907 49.8107 207.705 50.8453 207.534 51.656C207.363 52.4667 207.225 53.0533 207.118 53.416C208.014 53.3947 208.899 53.1173 209.774 52.584C210.649 52.0507 211.587 51.176 212.59 49.96C212.633 49.9173 212.697 49.8533 212.782 49.768C212.867 49.6827 212.953 49.64 213.038 49.64C213.166 49.64 213.23 49.6933 213.23 49.8C213.23 49.9067 213.198 50.0133 213.134 50.12C213.07 50.2267 213.006 50.3227 212.942 50.408C212.281 51.1973 211.662 51.848 211.086 52.36C210.51 52.8507 209.902 53.2453 209.262 53.544C208.622 53.8213 207.865 54.056 206.99 54.248L205.966 54.92C205.689 55.112 205.358 55.2507 204.974 55.336C204.59 55.4213 204.185 55.464 203.758 55.464ZM204.142 53.832C204.633 53.832 205.038 53.7147 205.358 53.48C205.593 53.352 205.817 53 206.03 52.424C206.265 51.8267 206.489 51.0907 206.702 50.216C206.873 49.4693 207.001 48.744 207.086 48.04C207.193 47.3147 207.289 46.6213 207.374 45.96L207.502 44.872C207.011 45.2347 206.393 45.7573 205.646 46.44C204.899 47.1227 204.163 47.8373 203.438 48.584C202.713 49.3307 202.243 49.8853 202.03 50.248C201.817 50.5893 201.699 50.8453 201.678 51.016C201.593 51.8693 201.795 52.552 202.286 53.064C202.798 53.576 203.417 53.832 204.142 53.832Z" fill="#6D7D7D" fill-opacity="1.000000" fill-rule="evenodd"/>
</svg>
