<svg width="255.000000" height="98.000000" viewBox="0 0 255 98" fill="none" xmlns="http://www.w3.org/2000/svg" xmlns:xlink="http://www.w3.org/1999/xlink">
	<desc>
			Created with Pixso.
	</desc>
	<defs/>
	<rect id="Rectangle 11" width="255.000000" height="98.000000" fill="#FFFFFF" fill-opacity="0"/>
	<path id="Sparta .Inc" d="M103.111 55.096C101.911 55.096 100.863 54.968 99.9672 54.712C99.0712 54.456 98.2472 54.072 97.4952 53.56L98.2632 51.928C99.6072 52.888 101.223 53.368 103.111 53.368C104.199 53.368 105.103 53.104 105.823 52.576C106.543 52.048 106.903 51.328 106.903 50.416C106.903 49.856 106.735 49.384 106.399 49C106.063 48.616 105.639 48.312 105.127 48.088C104.631 47.848 103.935 47.568 103.039 47.248C101.967 46.864 101.103 46.512 100.447 46.192C99.8072 45.872 99.2552 45.424 98.7912 44.848C98.3432 44.256 98.1192 43.504 98.1192 42.592C98.1192 41.152 98.6312 40.04 99.6552 39.256C100.679 38.472 101.991 38.08 103.591 38.08C105.511 38.08 107.183 38.584 108.607 39.592L107.839 41.176C106.559 40.248 105.159 39.784 103.639 39.784C102.663 39.784 101.863 40.016 101.239 40.48C100.615 40.944 100.303 41.616 100.303 42.496C100.303 43.04 100.471 43.496 100.807 43.864C101.143 44.232 101.559 44.536 102.055 44.776C102.551 45 103.239 45.272 104.119 45.592C105.191 45.976 106.055 46.336 106.711 46.672C107.367 46.992 107.927 47.456 108.391 48.064C108.855 48.656 109.087 49.408 109.087 50.32C109.087 51.296 108.839 52.144 108.343 52.864C107.847 53.584 107.143 54.136 106.231 54.52C105.335 54.904 104.295 55.096 103.111 55.096ZM118.395 41.464C119.451 41.464 120.379 41.728 121.179 42.256C121.979 42.768 122.603 43.528 123.051 44.536C123.499 45.528 123.723 46.704 123.723 48.064C123.723 50.384 123.123 52.144 121.923 53.344C120.723 54.544 119.139 55.144 117.171 55.144C116.323 55.144 115.523 55 114.771 54.712L114.771 60.376L112.635 60.376L112.635 41.848L114.291 41.848L114.531 42.928C115.667 41.952 116.955 41.464 118.395 41.464ZM117.075 53.488C118.595 53.488 119.715 53 120.435 52.024C121.171 51.048 121.539 49.712 121.539 48.016C121.539 46.32 121.219 45.088 120.579 44.32C119.955 43.536 119.179 43.144 118.251 43.144C117.563 43.144 116.955 43.248 116.427 43.456C115.915 43.648 115.363 43.968 114.771 44.416L114.771 53.032C115.459 53.336 116.227 53.488 117.075 53.488ZM137.704 54.688C137.128 54.896 136.552 55.008 135.976 55.024C135.336 55.024 134.808 54.896 134.392 54.64C133.992 54.384 133.744 53.936 133.648 53.296C132.128 54.464 130.72 55.048 129.424 55.048C128.416 55.048 127.592 54.76 126.952 54.184C126.312 53.592 125.992 52.856 125.992 51.976C125.992 51.16 126.216 50.488 126.664 49.96C127.112 49.416 127.736 48.968 128.536 48.616C129.352 48.264 130.448 47.888 131.824 47.488L133.6 46.984L133.6 46.048C133.6 44.128 132.872 43.168 131.416 43.168C130.616 43.168 129.88 43.336 129.208 43.672C128.536 43.992 127.776 44.6 126.928 45.496L126.04 44.152C127.832 42.36 129.76 41.464 131.824 41.464C133.2 41.464 134.192 41.824 134.8 42.544C135.424 43.264 135.736 44.464 135.736 46.144L135.736 52.408C135.736 52.76 135.8 53.016 135.928 53.176C136.056 53.32 136.256 53.392 136.528 53.392C136.768 53.392 137.112 53.312 137.56 53.152L137.704 54.688ZM128.128 51.808C128.128 52.352 128.288 52.752 128.608 53.008C128.928 53.264 129.352 53.392 129.88 53.392C130.424 53.392 130.984 53.256 131.56 52.984C132.152 52.712 132.832 52.296 133.6 51.736L133.6 48.4L132.232 48.808C130.712 49.272 129.648 49.72 129.04 50.152C128.432 50.584 128.128 51.136 128.128 51.808ZM147.08 43.48C146.312 43.48 145.576 43.616 144.872 43.888C144.184 44.144 143.408 44.624 142.544 45.328L142.544 54.712L140.408 54.712L140.408 41.896L142.064 41.896L142.448 43.624C143.232 42.84 143.992 42.288 144.728 41.968C145.48 41.648 146.264 41.488 147.08 41.488L147.08 43.48ZM157.241 54.232C156.409 54.76 155.513 55.024 154.553 55.024C153.177 55.024 152.161 54.656 151.505 53.92C150.849 53.168 150.521 52.096 150.521 50.704L150.521 43.504L148.481 43.504L148.481 42.592L150.713 41.968L151.361 38.872L152.657 38.872L152.657 41.896L156.497 41.896L156.497 43.504L152.657 43.504L152.657 50.368C152.657 51.408 152.825 52.168 153.161 52.648C153.497 53.112 154.041 53.344 154.793 53.344C155.161 53.328 155.497 53.272 155.801 53.176C156.121 53.08 156.473 52.928 156.857 52.72L157.241 54.232ZM170.915 54.688C170.339 54.896 169.763 55.008 169.187 55.024C168.547 55.024 168.019 54.896 167.603 54.64C167.203 54.384 166.955 53.936 166.859 53.296C165.339 54.464 163.931 55.048 162.635 55.048C161.627 55.048 160.803 54.76 160.163 54.184C159.523 53.592 159.203 52.856 159.203 51.976C159.203 51.16 159.427 50.488 159.875 49.96C160.323 49.416 160.947 48.968 161.747 48.616C162.563 48.264 163.659 47.888 165.035 47.488L166.811 46.984L166.811 46.048C166.811 44.128 166.083 43.168 164.627 43.168C163.827 43.168 163.091 43.336 162.419 43.672C161.747 43.992 160.987 44.6 160.139 45.496L159.251 44.152C161.043 42.36 162.971 41.464 165.035 41.464C166.411 41.464 167.403 41.824 168.011 42.544C168.635 43.264 168.947 44.464 168.947 46.144L168.947 52.408C168.947 52.76 169.011 53.016 169.139 53.176C169.267 53.32 169.467 53.392 169.739 53.392C169.979 53.392 170.323 53.312 170.771 53.152L170.915 54.688ZM161.339 51.808C161.339 52.352 161.499 52.752 161.819 53.008C162.139 53.264 162.563 53.392 163.091 53.392C163.635 53.392 164.195 53.256 164.771 52.984C165.363 52.712 166.043 52.296 166.811 51.736L166.811 48.4L165.443 48.808C163.923 49.272 162.859 49.72 162.251 50.152C161.643 50.584 161.339 51.136 161.339 51.808ZM180.723 54.928C180.323 54.928 179.979 54.784 179.691 54.496C179.403 54.208 179.259 53.864 179.259 53.464C179.259 53.064 179.403 52.72 179.691 52.432C179.979 52.144 180.323 52 180.723 52C181.123 52 181.467 52.144 181.755 52.432C182.043 52.72 182.187 53.064 182.187 53.464C182.187 53.864 182.043 54.208 181.755 54.496C181.483 54.784 181.139 54.928 180.723 54.928ZM186.754 38.392L188.962 38.392L188.962 54.712L186.754 54.712L186.754 38.392ZM200.396 41.464C201.804 41.464 202.772 41.84 203.3 42.592C203.844 43.328 204.116 44.392 204.116 45.784L204.116 54.712L201.98 54.712L201.98 45.976C201.98 44.968 201.82 44.248 201.5 43.816C201.18 43.384 200.628 43.168 199.844 43.168C199.252 43.168 198.652 43.304 198.044 43.576C197.436 43.848 196.772 44.264 196.052 44.824L196.052 54.712L193.916 54.712L193.916 41.896L195.572 41.896L195.884 43.24C197.436 42.056 198.94 41.464 200.396 41.464ZM213.558 55.144C212.214 55.144 211.078 54.84 210.15 54.232C209.222 53.608 208.526 52.784 208.062 51.76C207.614 50.736 207.39 49.592 207.39 48.328C207.39 47.08 207.622 45.936 208.086 44.896C208.566 43.856 209.286 43.024 210.246 42.4C211.206 41.776 212.398 41.464 213.822 41.464C214.606 41.464 215.358 41.6 216.078 41.872C216.798 42.128 217.39 42.496 217.854 42.976L217.062 44.488C216.662 44.072 216.174 43.744 215.598 43.504C215.022 43.248 214.43 43.12 213.822 43.12C212.478 43.12 211.43 43.6 210.678 44.56C209.942 45.504 209.574 46.752 209.574 48.304C209.574 49.872 209.918 51.128 210.606 52.072C211.31 53.016 212.294 53.488 213.558 53.488C214.342 53.488 215.038 53.328 215.646 53.008C216.254 52.672 216.83 52.216 217.374 51.64L218.19 53.008C217.646 53.632 216.974 54.144 216.174 54.544C215.39 54.944 214.518 55.144 213.558 55.144Z" fill="#6D7D7D" fill-opacity="1.000000" fill-rule="evenodd"/>
	<path id="Vector" d="M40.8605 46.0942C40.6588 45.3308 40.6588 44.5269 40.8604 43.7634C41.062 42.9998 41.4582 42.3037 42.0091 41.7446L53.489 30.0972C54.0399 29.5381 54.7261 29.1362 55.4786 28.9316C56.2312 28.7271 57.0235 28.7271 57.7761 28.9316L68.5184 31.8521C68.6302 30.3589 69.1425 28.9253 70 27.7063L57.0616 24.1892C56.133 23.9368 55.1552 23.937 54.2265 24.1895C53.2978 24.4419 52.451 24.9377 51.7711 25.6274L37.6041 40.0015C36.9243 40.6914 36.4355 41.5505 36.1866 42.4927C35.9378 43.4348 35.9378 44.427 36.1866 45.3691L39.7864 59C40.9632 58.0881 42.3643 57.522 43.8366 57.363L40.8605 46.0942Z" fill="#6D7D7D" fill-opacity="1.000000" fill-rule="nonzero"/>
	<path id="Vector" d="M77.948 40.7451L81.0685 52.2231C81.2732 52.9758 81.2729 53.7681 81.0685 54.5205C80.8638 55.2732 80.4617 55.9592 79.9028 56.5103L68.2552 67.9907C67.6963 68.5415 67.0002 68.9375 66.2365 69.1394C65.4731 69.3408 64.669 69.3408 63.9056 69.1394L52.6369 66.1631C52.4781 67.6355 51.9119 69.0366 51 70.2134L64.6307 73.8132C65.5729 74.0623 66.565 74.0623 67.5072 73.8132C68.4496 73.5645 69.3086 73.0757 69.9985 72.3958L84.3724 58.2285C85.0623 57.5486 85.558 56.7017 85.8106 55.7729C86.0631 54.8442 86.0631 53.8665 85.8106 52.9377L82.0205 39C80.8517 39.9402 79.4425 40.5442 77.948 40.7451Z" fill="#6D7D7D" fill-opacity="1.000000" fill-rule="nonzero"/>
	<path id="Vector" d="M39.9038 60.9011C38.9948 61.8103 38.3757 62.969 38.1249 64.23C37.8741 65.4912 38.0028 66.7986 38.4948 67.9866C38.9868 69.1743 39.8199 70.1897 40.8888 70.9043C41.9577 71.6184 43.2144 72 44.5 72C45.7856 72 47.0423 71.6184 48.1112 70.9043C49.1801 70.1897 50.0133 69.1743 50.5052 67.9866C50.9972 66.7986 51.1259 65.4912 50.8751 64.23C50.6243 62.969 50.0052 61.8103 49.0962 60.9011C47.8762 59.6838 46.2233 59 44.5 59C42.7767 59 41.1238 59.6838 39.9038 60.9011Z" fill="#6D7D7D" fill-opacity="1.000000" fill-rule="nonzero"/>
	<path id="Vector" d="M71.9038 27.9011C70.9948 28.8105 70.3755 29.969 70.1249 31.23C69.8741 32.4912 70.0027 33.7986 70.4948 34.9866C70.9868 36.1746 71.8198 37.1899 72.8886 37.9043C73.9577 38.6187 75.2144 39 76.4999 39C77.7856 39 79.0423 38.6187 80.1114 37.9043C81.1802 37.1899 82.0132 36.1746 82.5052 34.9866C82.9973 33.7986 83.1259 32.4912 82.8751 31.23C82.6245 29.969 82.0052 28.8105 81.0962 27.9011C79.8764 26.6838 78.2233 26 76.4999 26C74.7767 26 73.1236 26.6838 71.9038 27.9011Z" fill="#6D7D7D" fill-opacity="1.000000" fill-rule="nonzero"/>
	<path id="Vector" d="M64.7654 66C64.5078 66 64.2515 65.9663 64.0027 65.8997L53.9797 63.2139C53.6455 61.4294 52.7796 59.7874 51.4957 58.5037C50.2118 57.22 48.5698 56.3538 46.7851 56.0198L44.0996 45.998C43.9664 45.4983 43.9668 44.9722 44.1007 44.4724C44.2346 43.9729 44.4973 43.5171 44.8626 43.1506L55.1501 32.8635C55.516 32.4976 55.9719 32.2344 56.4717 32.1003C56.9717 31.9666 57.498 31.9666 57.9979 32.1006L67.7399 34.7107C68.1263 36.4844 69.0394 38.0999 70.3596 39.3457C71.6798 40.5916 73.3455 41.4097 75.1384 41.6926L77.9005 52.0024C78.0335 52.5027 78.0333 53.0288 77.8991 53.5283C77.7653 54.0281 77.5026 54.4836 77.1372 54.8501L66.8497 65.1372C66.5767 65.4116 66.2516 65.6292 65.8939 65.7771C65.5361 65.9253 65.1526 66.001 64.7654 66Z" fill="#6D7D7D" fill-opacity="1.000000" fill-rule="nonzero"/>
</svg>
