<svg width="41" height="27" viewBox="0 0 41 27" fill="none" xmlns="http://www.w3.org/2000/svg">
<rect x="0.632466" y="0.90395" width="40.1489" height="25.9335" rx="4.70645" fill="white"/>
<rect x="0.632466" y="0.90395" width="40.1489" height="25.9335" rx="4.70645" stroke="#D6DCE5" stroke-width="0.1921"/>
<path d="M13.6523 10.499C13.9189 10.1656 14.0998 9.71787 14.0521 9.26038C13.6619 9.27978 13.1857 9.51782 12.91 9.85151C12.6624 10.1373 12.4433 10.6037 12.5004 11.042C12.9385 11.08 13.3761 10.8231 13.6523 10.499Z" fill="#000008"/>
<path d="M14.0471 11.1276C13.411 11.0897 12.8701 11.4887 12.5663 11.4887C12.2623 11.4887 11.7971 11.1467 11.2939 11.1559C10.639 11.1655 10.0314 11.5358 9.69903 12.1248C9.01548 13.3029 9.51864 15.0505 10.1834 16.0101C10.5062 16.4848 10.8952 17.0075 11.4078 16.9887C11.8922 16.9697 12.082 16.6751 12.6707 16.6751C13.259 16.6751 13.43 16.9887 13.9427 16.9792C14.4744 16.9697 14.8068 16.5042 15.1296 16.0291C15.4999 15.4879 15.6515 14.9654 15.661 14.9367C15.6515 14.9272 14.6358 14.5376 14.6264 13.3692C14.6168 12.3909 15.4238 11.9256 15.4618 11.8967C15.0061 11.2227 14.294 11.1467 14.0471 11.1276Z" fill="#000008"/>
<path d="M19.5863 9.80366C20.969 9.80366 21.9318 10.7568 21.9318 12.1444C21.9318 13.537 20.9491 14.495 19.5516 14.495H18.0207V16.9296H16.9147V9.80366L19.5863 9.80366ZM18.0207 13.5666H19.2899C20.2529 13.5666 20.8009 13.0481 20.8009 12.1493C20.8009 11.2506 20.2529 10.737 19.2948 10.737H18.0207V13.5666Z" fill="#000008"/>
<path d="M22.2207 15.4531C22.2207 14.5443 22.917 13.9864 24.1517 13.9172L25.5738 13.8333V13.4333C25.5738 12.8555 25.1836 12.5099 24.5319 12.5099C23.9145 12.5099 23.5293 12.8061 23.4356 13.2703H22.4282C22.4874 12.332 23.2874 11.6407 24.5714 11.6407C25.8306 11.6407 26.6355 12.3073 26.6355 13.3493V16.9296H25.6132V16.0752H25.5887C25.2875 16.653 24.6306 17.0184 23.9492 17.0184C22.9319 17.0184 22.2207 16.3863 22.2207 15.4531ZM25.5738 14.9839V14.5741L24.2948 14.653C23.6577 14.6975 23.2973 14.979 23.2973 15.4234C23.2973 15.8777 23.6726 16.174 24.2454 16.174C24.991 16.174 25.5738 15.6604 25.5738 14.9839Z" fill="#000008"/>
<path d="M27.6006 18.8407V17.9765C27.6794 17.9962 27.8572 17.9962 27.9461 17.9962C28.4399 17.9962 28.7066 17.7888 28.8695 17.2555C28.8695 17.2456 28.9634 16.9395 28.9634 16.9345L27.087 11.7345H28.2424L29.5561 15.9617H29.5757L30.8894 11.7345H32.0153L30.0695 17.2011C29.6252 18.4604 29.1116 18.8654 28.0351 18.8654C27.9461 18.8654 27.6794 18.8555 27.6006 18.8407Z" fill="#000008"/>
</svg>
