<svg width="42" height="27" viewBox="0 0 42 27" fill="none" xmlns="http://www.w3.org/2000/svg">
<rect x="0.87563" y="0.90395" width="40.1489" height="25.9335" rx="4.70645" fill="white"/>
<rect x="0.87563" y="0.90395" width="40.1489" height="25.9335" rx="4.70645" stroke="#D6DCE5" stroke-width="0.1921"/>
<path d="M20.0811 16.9558H19.1824V9.96272H21.5649C22.1687 9.96272 22.6836 10.164 23.1049 10.5665C23.5355 10.9691 23.7508 11.4606 23.7508 12.041C23.7508 12.6354 23.5355 13.1269 23.1049 13.5248C22.6883 13.9227 22.1734 14.1192 21.5649 14.1192H20.0811V16.9558ZM20.0811 10.824V13.2627H21.5836C21.9394 13.2627 22.2389 13.141 22.473 12.9022C22.7117 12.6635 22.8334 12.3733 22.8334 12.0457C22.8334 11.7227 22.7117 11.4372 22.473 11.1984C22.2389 10.9504 21.944 10.8287 21.5836 10.8287H20.0811V10.824Z" fill="#3C4043"/>
<path d="M26.1005 12.0129C26.7651 12.0129 27.2894 12.1908 27.6732 12.5465C28.057 12.9022 28.2489 13.389 28.2489 14.0069V16.9558H27.3924V16.2911H27.3549C26.9851 16.8388 26.489 17.1103 25.8711 17.1103C25.3422 17.1103 24.9022 16.9558 24.5465 16.6422C24.1907 16.3286 24.0128 15.9401 24.0128 15.472C24.0128 14.9758 24.2001 14.5826 24.5745 14.2924C24.949 13.9975 25.4498 13.8524 26.0724 13.8524C26.606 13.8524 27.046 13.9507 27.3877 14.1473V13.9414C27.3877 13.6278 27.266 13.3656 27.0179 13.1456C26.7698 12.9256 26.4796 12.818 26.1473 12.818C25.6464 12.818 25.2486 13.0286 24.9584 13.4546L24.1673 12.9584C24.6026 12.3265 25.2486 12.0129 26.1005 12.0129ZM24.9396 15.486C24.9396 15.7201 25.0379 15.9167 25.2392 16.0711C25.4358 16.2256 25.6698 16.3052 25.9366 16.3052C26.3158 16.3052 26.6528 16.1647 26.9477 15.8839C27.2426 15.6031 27.3924 15.2754 27.3924 14.8963C27.1115 14.6763 26.723 14.5639 26.2222 14.5639C25.8571 14.5639 25.5528 14.6529 25.3094 14.826C25.0613 15.0086 24.9396 15.2286 24.9396 15.486Z" fill="#3C4043"/>
<path d="M33.1357 12.1674L30.14 19.0575H29.2132L30.3272 16.6469L28.352 12.1674H29.3302L30.7532 15.6031H30.7719L32.1574 12.1674H33.1357Z" fill="#3C4043"/>
<path d="M16.5064 13.5529C16.5064 13.2599 16.4801 12.9795 16.4315 12.7099H12.6644V14.2545L14.8339 14.255C14.7459 14.7689 14.4627 15.2071 14.0288 15.4991V16.5013H15.3202C16.0743 15.8034 16.5064 14.7718 16.5064 13.5529Z" fill="#4285F4"/>
<path d="M14.0293 15.4992C13.6698 15.7417 13.2069 15.8835 12.6653 15.8835C11.6192 15.8835 10.7317 15.1786 10.4139 14.2284H9.08173V15.2619C9.74172 16.5716 11.0982 17.4703 12.6653 17.4703C13.7484 17.4703 14.6584 17.1141 15.3207 16.5009L14.0293 15.4992Z" fill="#34A853"/>
<path d="M10.2884 13.4616C10.2884 13.1948 10.3329 12.9369 10.4138 12.6944V11.6609H9.08169C8.8088 12.2025 8.65527 12.8138 8.65527 13.4616C8.65527 14.1094 8.80927 14.7207 9.08169 15.2623L10.4138 14.2288C10.3329 13.9863 10.2884 13.7284 10.2884 13.4616Z" fill="#FABB05"/>
<path d="M12.6653 11.0393C13.2565 11.0393 13.7859 11.2429 14.2039 11.6408L15.3483 10.4973C14.6532 9.84991 13.747 9.45251 12.6653 9.45251C11.0987 9.45251 9.74168 10.3512 9.08169 11.6609L10.4138 12.6944C10.7317 11.7442 11.6192 11.0393 12.6653 11.0393Z" fill="#E94235"/>
</svg>
