<svg width="41" height="27" viewBox="0 0 41 27" fill="none" xmlns="http://www.w3.org/2000/svg">
<rect x="0.147114" y="0.90395" width="40.1489" height="25.9335" rx="4.70645" fill="white"/>
<rect x="0.147114" y="0.90395" width="40.1489" height="25.9335" rx="4.70645" stroke="#D6DCE5" stroke-width="0.1921"/>
<path d="M23.0914 8.58459H17.2084V19.1566H23.0914V8.58459Z" fill="#FF5F00"/>
<path d="M17.5819 13.8706C17.581 12.8524 17.8117 11.8474 18.2566 10.9316C18.7015 10.0158 19.349 9.21319 20.1499 8.58458C19.1581 7.80496 17.9669 7.32013 16.7125 7.18549C15.4581 7.05086 14.1912 7.27186 13.0565 7.82323C11.9218 8.37461 10.9651 9.23411 10.2957 10.3035C9.62642 11.3729 9.27148 12.609 9.27148 13.8706C9.27148 15.1322 9.62642 16.3683 10.2957 17.4377C10.9651 18.5071 11.9218 19.3666 13.0565 19.918C14.1912 20.4693 15.4581 20.6903 16.7125 20.5557C17.9669 20.4211 19.1581 19.9362 20.1499 19.1566C19.349 18.528 18.7016 17.7254 18.2566 16.8096C17.8117 15.8938 17.581 14.8888 17.5819 13.8706Z" fill="#EB001B"/>
<path d="M31.028 13.8706C31.0281 15.1322 30.6732 16.3683 30.0039 17.4377C29.3346 18.5071 28.3779 19.3666 27.2432 19.9179C26.1086 20.4693 24.8416 20.6903 23.5873 20.5557C22.3329 20.4211 21.1417 19.9362 20.1499 19.1566C20.9502 18.5274 21.5971 17.7246 22.0419 16.809C22.4867 15.8933 22.7179 14.8886 22.7179 13.8706C22.7179 12.8526 22.4867 11.8479 22.0419 10.9322C21.5971 10.0165 20.9502 9.21382 20.1499 8.58458C21.1417 7.80496 22.3329 7.32012 23.5873 7.18549C24.8416 7.05086 26.1086 7.27187 27.2432 7.82325C28.3779 8.37463 29.3346 9.23413 30.0039 10.3035C30.6732 11.3729 31.0281 12.609 31.028 13.8706Z" fill="#F79E1B"/>
<path d="M30.3866 18.0369V17.8204H30.4738V17.7763H30.2516V17.8204H30.3389V18.0369H30.3866ZM30.8181 18.0369V17.7759H30.7499L30.6716 17.9554L30.5932 17.7759H30.525V18.0369H30.5731V17.84L30.6466 18.0097H30.6965L30.77 17.8396V18.0369H30.8181Z" fill="#F79E1B"/>
</svg>
