<svg width="255.000000" height="98.000000" viewBox="0 0 255 98" fill="none" xmlns="http://www.w3.org/2000/svg" xmlns:xlink="http://www.w3.org/1999/xlink">
	<desc>
			Created with Pixso.
	</desc>
	<defs/>
	<rect id="Rectangle 12" width="255.000000" height="98.000000" fill="#FFFFFF" fill-opacity="0"/>
	<path id="Vector" d="M91.399 41.7441L82.5122 32.7122C82.5067 32.7065 82.5008 32.7014 82.4953 32.6958C82.4899 32.6902 82.4833 32.6829 82.4769 32.6763C79.8837 30.041 76.4647 28.4106 72.8129 28.0676C69.1611 27.7249 65.5065 28.6912 62.4819 30.7993C59.4573 28.6912 55.8027 27.7249 52.1509 28.0676C48.499 28.4106 45.0802 30.041 42.4868 32.6763L33.6 41.7083C30.8312 44.5229 29.1966 48.2871 29.0166 52.2632C28.8366 56.239 30.1242 60.1401 32.627 63.2014C35.1298 66.2625 38.6674 68.2634 42.5462 68.8118C46.425 69.3599 50.3656 68.416 53.5953 66.165C56.2103 67.9875 59.3068 68.9634 62.4775 68.9646C65.6484 68.9653 68.7452 67.9912 71.3613 66.1702C74.5872 68.4353 78.5298 69.3921 82.4147 68.8533C86.2994 68.3145 89.8455 66.3188 92.3564 63.2581C94.8671 60.1973 96.1609 56.2932 95.9839 52.3125C95.8068 48.3315 94.1714 44.562 91.399 41.7441ZM48.7696 61.6421C46.7634 62.616 44.4831 62.8376 42.3317 62.2678C40.1802 61.6985 38.2962 60.374 37.0125 58.5291C35.7289 56.6843 35.1282 54.4377 35.3168 52.1863C35.5053 49.9348 36.4708 47.8235 38.0428 46.2256L46.9294 37.1936C48.3088 35.7937 50.0807 34.8618 52.002 34.5264C53.9233 34.1909 55.8997 34.468 57.6596 35.3201L51.3735 41.7083C48.9628 44.1455 47.4022 47.3169 46.9294 50.7393C46.8253 51.4875 46.7728 52.2422 46.7723 52.998C46.766 55.9858 47.5904 58.9143 49.1504 61.4468C49.0245 61.5151 48.8976 61.5798 48.7696 61.6416L48.7696 61.6421ZM69.1469 59.7727C67.3773 61.5593 64.9829 62.5601 62.4885 62.5559C59.994 62.5518 57.603 61.5425 55.8391 59.75C54.0753 57.9573 53.0825 55.5273 53.0782 52.9919C53.0743 50.4568 54.0588 48.0234 55.8169 46.2249L62.4819 39.4509L69.1469 46.2249C70.9115 48.0227 71.9024 50.4585 71.9024 52.998C71.9024 55.5374 70.9115 57.9731 69.1469 59.771L69.1469 59.7727ZM86.9556 59.8083C85.5698 61.2134 83.7885 62.1455 81.8583 62.4763C79.9282 62.8071 77.9446 62.5198 76.1822 61.6543C76.0554 61.5923 75.93 61.5273 75.806 61.4592C77.3708 58.9241 78.1979 55.9907 78.1915 52.998C78.1909 52.2422 78.1385 51.4875 78.0344 50.7393C77.5617 47.3169 76.001 44.1455 73.5903 41.7083L67.3427 35.3586L67.3074 35.3228C69.0665 34.4712 71.0418 34.1938 72.9622 34.5286C74.8827 34.8633 76.654 35.7937 78.0335 37.1921C78.0399 37.1985 78.0458 37.2056 78.0519 37.2119C78.058 37.2183 78.0633 37.2227 78.0688 37.2283L86.914 46.218L86.9563 46.2607C88.7238 48.0574 89.7169 50.4941 89.7169 53.0347C89.7169 55.5754 88.7238 58.012 86.9563 59.8086L86.9556 59.8083Z" fill="#6D7D7D" fill-opacity="1.000000" fill-rule="nonzero"/>
	<path id="Allianzy" d="M106.229 60.68C105.867 60.68 105.686 60.52 105.686 60.2C105.686 60.072 105.717 59.9333 105.782 59.784L114.229 39.752C114.357 39.432 114.496 39.2187 114.646 39.112C114.795 38.984 115.008 38.92 115.285 38.92L117.046 38.92C117.344 38.92 117.558 38.984 117.686 39.112C117.835 39.2187 117.974 39.432 118.102 39.752L126.549 59.784C126.614 59.9333 126.646 60.072 126.646 60.2C126.646 60.52 126.464 60.68 126.102 60.68L123.318 60.68C123.04 60.68 122.838 60.648 122.71 60.584C122.603 60.4987 122.496 60.3387 122.39 60.104L120.565 55.624L111.733 55.624L109.941 60.104C109.835 60.3387 109.717 60.4987 109.59 60.584C109.483 60.648 109.291 60.68 109.014 60.68L106.229 60.68ZM119.542 52.648L116.149 44.264L112.757 52.648L119.542 52.648ZM130.978 60.68C130.552 60.68 130.242 60.584 130.05 60.392C129.88 60.2 129.794 59.912 129.794 59.528L129.794 40.104C129.794 39.6987 129.88 39.4 130.05 39.208C130.242 39.016 130.552 38.92 130.978 38.92L132.674 38.92C133.101 38.92 133.41 39.016 133.602 39.208C133.794 39.4 133.89 39.6987 133.89 40.104L133.89 59.528C133.89 59.912 133.794 60.2 133.602 60.392C133.432 60.584 133.122 60.68 132.674 60.68L130.978 60.68ZM138.853 60.68C138.427 60.68 138.117 60.584 137.925 60.392C137.755 60.2 137.669 59.912 137.669 59.528L137.669 40.104C137.669 39.6987 137.755 39.4 137.925 39.208C138.117 39.016 138.427 38.92 138.853 38.92L140.549 38.92C140.976 38.92 141.285 39.016 141.477 39.208C141.669 39.4 141.765 39.6987 141.765 40.104L141.765 59.528C141.765 59.912 141.669 60.2 141.477 60.392C141.307 60.584 140.997 60.68 140.549 60.68L138.853 60.68ZM147.144 42.664C146.632 42.664 146.238 42.5147 145.96 42.216C145.683 41.9173 145.544 41.5547 145.544 41.128L145.544 40.456C145.544 40.0293 145.683 39.6667 145.96 39.368C146.238 39.0693 146.632 38.92 147.144 38.92L148.52 38.92C149.032 38.92 149.427 39.0693 149.704 39.368C150.003 39.6667 150.152 40.0293 150.152 40.456L150.152 41.128C150.152 41.5547 150.003 41.9173 149.704 42.216C149.427 42.5147 149.032 42.664 148.52 42.664L147.144 42.664ZM147.016 60.68C146.59 60.68 146.28 60.584 146.088 60.392C145.896 60.2 145.8 59.912 145.8 59.528L145.8 46.504C145.8 46.0987 145.896 45.8 146.088 45.608C146.28 45.416 146.59 45.32 147.016 45.32L148.68 45.32C149.107 45.32 149.416 45.416 149.608 45.608C149.8 45.8 149.896 46.0987 149.896 46.504L149.896 59.528C149.896 59.912 149.8 60.2 149.608 60.392C149.438 60.584 149.128 60.68 148.68 60.68L147.016 60.68ZM160.127 61.16C158.037 61.16 156.373 60.5307 155.135 59.272C153.898 57.992 153.279 56.2 153.279 53.896C153.279 52.104 153.674 50.5253 154.463 49.16C155.253 47.7733 156.373 46.7067 157.823 45.96C159.295 45.2133 161.002 44.84 162.943 44.84C165.653 44.84 167.946 45.48 169.823 46.76L169.823 59.816C169.823 60.136 169.749 60.36 169.599 60.488C169.471 60.616 169.237 60.68 168.895 60.68L167.135 60.68C166.901 60.68 166.719 60.6373 166.591 60.552C166.485 60.4453 166.41 60.2853 166.367 60.072L166.111 58.824C165.45 59.6347 164.629 60.232 163.647 60.616C162.687 60.9787 161.514 61.16 160.127 61.16ZM161.663 58.248C162.794 58.248 163.786 57.9173 164.639 57.256C165.514 56.5947 165.951 55.72 165.951 54.632L165.951 48.392C165.503 48.1573 165.045 47.9973 164.575 47.912C164.127 47.8053 163.573 47.752 162.911 47.752C161.226 47.752 159.871 48.2853 158.847 49.352C157.823 50.4187 157.311 51.8907 157.311 53.768C157.311 55.304 157.663 56.4347 158.367 57.16C159.093 57.8853 160.191 58.248 161.663 58.248ZM174.823 60.68C174.396 60.68 174.087 60.584 173.895 60.392C173.703 60.2 173.607 59.912 173.607 59.528L173.607 46.184C173.607 45.864 173.66 45.64 173.767 45.512C173.873 45.384 174.097 45.32 174.439 45.32L176.263 45.32C176.732 45.32 176.977 45.5333 176.999 45.96L177.063 47.24C178.513 45.64 180.593 44.84 183.303 44.84C185.031 44.84 186.417 45.3093 187.463 46.248C188.529 47.1653 189.063 48.552 189.063 50.408L189.063 59.528C189.063 59.912 188.967 60.2 188.775 60.392C188.604 60.584 188.305 60.68 187.879 60.68L186.183 60.68C185.756 60.68 185.447 60.584 185.255 60.392C185.063 60.2 184.967 59.912 184.967 59.528L184.967 50.664C184.967 49.6187 184.721 48.8827 184.231 48.456C183.761 48.008 182.993 47.784 181.927 47.784C180.796 47.784 179.804 48.0933 178.951 48.712C178.119 49.3093 177.703 50.088 177.703 51.048L177.703 59.528C177.703 59.912 177.607 60.2 177.415 60.392C177.244 60.584 176.935 60.68 176.487 60.68L174.823 60.68ZM193.021 60.68C192.659 60.68 192.403 60.616 192.253 60.488C192.125 60.3387 192.061 60.0933 192.061 59.752C192.061 59.176 192.125 58.7493 192.253 58.472C192.381 58.1947 192.68 57.8107 193.149 57.32L201.661 48.456L193.565 48.456C193.139 48.456 192.829 48.3707 192.637 48.2C192.445 48.0293 192.349 47.7413 192.349 47.336L192.349 46.408C192.349 46.0027 192.445 45.7253 192.637 45.576C192.829 45.4053 193.139 45.32 193.565 45.32L205.885 45.32C206.227 45.32 206.461 45.3947 206.589 45.544C206.717 45.672 206.781 45.9067 206.781 46.248C206.781 46.824 206.707 47.272 206.557 47.592C206.429 47.8907 206.152 48.264 205.725 48.712L197.469 57.576L205.885 57.576C206.312 57.576 206.621 57.672 206.813 57.864C207.005 58.0347 207.101 58.3227 207.101 58.728L207.101 59.592C207.101 59.976 207.005 60.2533 206.813 60.424C206.621 60.5947 206.312 60.68 205.885 60.68L193.021 60.68ZM213.131 65.672C212.321 65.672 211.574 65.5547 210.891 65.32C210.209 65.0853 209.622 64.7653 209.131 64.36C208.961 64.2107 208.875 64.072 208.875 63.944C208.875 63.816 208.918 63.6987 209.003 63.592L209.899 62.056C210.027 61.8427 210.155 61.736 210.283 61.736C210.39 61.736 210.518 61.8 210.667 61.928C211.009 62.184 211.35 62.376 211.691 62.504C212.054 62.632 212.481 62.696 212.971 62.696C213.611 62.696 214.113 62.4827 214.475 62.056C214.838 61.6507 215.211 60.9573 215.595 59.976L209.131 46.216C209.046 46.0027 209.003 45.8533 209.003 45.768C209.003 45.4693 209.174 45.32 209.515 45.32L212.235 45.32C212.513 45.32 212.715 45.3627 212.843 45.448C212.971 45.5333 213.089 45.6933 213.195 45.928L217.483 55.976L221.771 45.928C221.878 45.6933 221.995 45.5333 222.123 45.448C222.251 45.3627 222.454 45.32 222.731 45.32L225.451 45.32C225.793 45.32 225.963 45.4693 225.963 45.768C225.963 45.8533 225.921 46.0027 225.835 46.216L219.819 59.048C218.987 60.7973 218.283 62.12 217.707 63.016C217.153 63.912 216.513 64.5733 215.787 65C215.083 65.448 214.198 65.672 213.131 65.672Z" fill="#6D7D7D" fill-opacity="1.000000" fill-rule="evenodd"/>
</svg>
