<svg width="42" height="27" viewBox="0 0 42 27" fill="none" xmlns="http://www.w3.org/2000/svg">
<rect x="0.90395" y="0.90395" width="40.1489" height="25.9335" rx="4.70645" fill="white"/>
<rect x="0.90395" y="0.90395" width="40.1489" height="25.9335" rx="4.70645" stroke="#D6DCE5" stroke-width="0.1921"/>
<path d="M20.7339 9.67549L18.8702 18.3875H16.6166L18.4806 9.67549H20.7339ZM30.2158 15.3008L31.4023 12.0292L32.085 15.3008H30.2158ZM32.7302 18.3875H34.8148L32.9958 9.67549H31.0717C30.6393 9.67549 30.2745 9.92696 30.1121 10.3147L26.731 18.3875H29.0977L29.5675 17.0865H32.4589L32.7302 18.3875ZM26.8485 15.5429C26.8581 13.2436 23.6686 13.117 23.6907 12.0899C23.6973 11.7769 23.9954 11.4449 24.6464 11.3597C24.9698 11.3175 25.8591 11.2853 26.8689 11.7499L27.2643 9.90242C26.7219 9.70555 26.024 9.51611 25.156 9.51611C22.9285 9.51611 21.3607 10.7004 21.3475 12.3962C21.3334 13.6503 22.4667 14.3501 23.3206 14.767C24.1986 15.1941 24.4936 15.4677 24.4898 15.8496C24.484 16.4344 23.7894 16.692 23.1414 16.7022C22.0081 16.7201 21.3505 16.3964 20.8263 16.1521L20.4179 18.061C20.9443 18.3028 21.9163 18.5129 22.9247 18.5237C25.2919 18.5237 26.8407 17.354 26.8485 15.5429ZM17.5136 9.67549L13.8622 18.3875H11.4796L9.68287 11.4347C9.57368 11.0065 9.47883 10.8499 9.14711 10.6693C8.60584 10.3756 7.71106 10.0996 6.92383 9.92862L6.9776 9.67549H10.8123C11.3009 9.67549 11.7407 10.0009 11.8516 10.5636L12.8007 15.6053L15.1458 9.67549H17.5136Z" fill="#1434CB"/>
</svg>
