<svg width="41" height="27" viewBox="0 0 41 27" fill="none" xmlns="http://www.w3.org/2000/svg">
<rect x="0.390278" y="0.90395" width="40.1489" height="25.9335" rx="4.70645" fill="white"/>
<rect x="0.390278" y="0.90395" width="40.1489" height="25.9335" rx="4.70645" stroke="#D6DCE5" stroke-width="0.1921"/>
<path fill-rule="evenodd" clip-rule="evenodd" d="M9.22695 10.1255H6.92329C6.76564 10.1255 6.63157 10.24 6.60699 10.3956L5.67527 16.3022C5.65675 16.4188 5.74702 16.5238 5.86526 16.5238H6.96505C7.12269 16.5238 7.25676 16.4093 7.28135 16.2534L7.53264 14.6603C7.55688 14.5043 7.69128 14.3899 7.8486 14.3899H8.57786C10.0954 14.3899 10.9711 13.6556 11.1999 12.2006C11.303 11.5641 11.2043 11.0639 10.9061 10.7135C10.5788 10.329 9.99794 10.1255 9.22695 10.1255ZM9.49273 12.2828C9.36678 13.1093 8.73518 13.1093 8.12448 13.1093H7.77685L8.02072 11.5656C8.03521 11.4724 8.11604 11.4037 8.21037 11.4037H8.36969C8.7857 11.4037 9.17816 11.4037 9.38096 11.6408C9.50177 11.7823 9.53887 11.9924 9.49273 12.2828ZM16.1132 12.2563H15.01C14.916 12.2563 14.8348 12.325 14.8203 12.4184L14.7715 12.7268L14.6943 12.6151C14.4555 12.2684 13.923 12.1526 13.3915 12.1526C12.1723 12.1526 11.1312 13.0758 10.9284 14.3709C10.823 15.0168 10.9728 15.6345 11.3393 16.0653C11.6755 16.4613 12.1566 16.6264 12.7288 16.6264C13.711 16.6264 14.2558 15.9948 14.2558 15.9948L14.2066 16.3014C14.188 16.4186 14.2783 16.5237 14.3958 16.5237H15.3896C15.5476 16.5237 15.6809 16.4091 15.7059 16.2532L16.3021 12.4779C16.321 12.3618 16.231 12.2563 16.1132 12.2563ZM14.5754 14.4031C14.4689 15.0333 13.9687 15.4563 13.3308 15.4563C13.0105 15.4563 12.7544 15.3536 12.5901 15.1589C12.427 14.9657 12.365 14.6904 12.4169 14.384C12.5164 13.7591 13.025 13.3224 13.6532 13.3224C13.9664 13.3224 14.2211 13.4263 14.3888 13.6227C14.5568 13.8211 14.6236 14.098 14.5754 14.4031ZM20.8799 12.2561H21.9885C22.1438 12.2561 22.2343 12.4302 22.1461 12.5576L18.459 17.879C18.3993 17.9652 18.301 18.0165 18.1959 18.0165H17.0887C16.9328 18.0165 16.8418 17.841 16.932 17.7134L18.0801 16.093L16.8591 12.51C16.8168 12.3855 16.9088 12.2561 17.0413 12.2561H18.1306C18.2721 12.2561 18.397 12.349 18.4378 12.4845L19.0858 14.6485L20.6149 12.3966C20.6747 12.3086 20.7742 12.2561 20.8799 12.2561Z" fill="#253B80"/>
<path fill-rule="evenodd" clip-rule="evenodd" d="M32.8997 16.3017L33.8451 10.287C33.8596 10.1937 33.9405 10.1249 34.0345 10.1246H35.0989C35.2164 10.1246 35.3067 10.23 35.2881 10.3466L34.3558 16.2529C34.3315 16.4087 34.1974 16.5233 34.0395 16.5233H33.089C32.9714 16.5233 32.8812 16.4182 32.8997 16.3017ZM25.6592 10.1249H23.3551C23.1978 10.1249 23.0637 10.2395 23.0391 10.3951L22.1074 16.3017C22.0889 16.4182 22.1791 16.5233 22.2968 16.5233H23.479C23.5889 16.5233 23.6829 16.4432 23.7001 16.3341L23.9644 14.6598C23.9888 14.5038 24.1231 14.3894 24.2804 14.3894H25.0093C26.5271 14.3894 27.4027 13.6551 27.6317 12.2001C27.7351 11.5636 27.6358 11.0634 27.3377 10.713C27.0105 10.3285 26.4302 10.1249 25.6592 10.1249ZM25.925 12.2822C25.7993 13.1088 25.1677 13.1088 24.5566 13.1088H24.2093L24.4536 11.5651C24.4681 11.4719 24.5482 11.4032 24.6428 11.4032H24.8021C25.2179 11.4032 25.6107 11.4032 25.8133 11.6402C25.9343 11.7818 25.9711 11.9919 25.925 12.2822ZM32.5448 12.2558H31.4424C31.3476 12.2558 31.2672 12.3245 31.253 12.4178L31.2042 12.7263L31.1267 12.6145C30.8879 12.2679 30.3557 12.1521 29.8242 12.1521C28.605 12.1521 27.5642 13.0753 27.3614 14.3704C27.2563 15.0162 27.4055 15.6339 27.772 16.0647C28.1089 16.4608 28.5893 16.6258 29.1615 16.6258C30.1437 16.6258 30.6884 15.9943 30.6884 15.9943L30.6393 16.3009C30.6207 16.4181 30.711 16.5231 30.8293 16.5231H31.8226C31.9799 16.5231 32.1139 16.4086 32.1385 16.2527L32.7351 12.4774C32.7533 12.3613 32.6631 12.2558 32.5448 12.2558ZM31.0072 14.4026C30.9013 15.0328 30.4005 15.4558 29.7624 15.4558C29.4427 15.4558 29.1862 15.3531 29.0217 15.1584C28.8586 14.9651 28.7974 14.6899 28.8487 14.3834C28.9486 13.7586 29.4566 13.3219 30.0848 13.3219C30.3981 13.3219 30.6527 13.4258 30.8206 13.6222C30.9892 13.8206 31.056 14.0974 31.0072 14.4026Z" fill="#179BD7"/>
</svg>
