<svg width="40.000000" height="40.000000" viewBox="0 0 40 40" fill="none" xmlns="http://www.w3.org/2000/svg" xmlns:xlink="http://www.w3.org/1999/xlink">
	<desc>
			Created with Pixso.
	</desc>
	<defs>
		<clipPath id="clip60_433">
			<rect id="Instagram" width="40.000000" height="40.000000" fill="white" fill-opacity="0"/>
		</clipPath>
	</defs>
	<rect id="Instagram" width="40.000000" height="40.000000" fill="#FFFFFF" fill-opacity="0"/>
	<g clip-path="url(#clip60_433)">
		<path id="Vector (Border)" d="M32.3001 2.09033C31.0823 1.58594 29.76 1.3335 28.3333 1.3335L11.6666 1.3335C10.2399 1.3335 8.91765 1.58594 7.69985 2.09033C6.48205 2.59473 5.36873 3.35107 4.35988 4.35986C3.35102 5.36914 2.59438 6.48242 2.08995 7.7002C1.58553 8.91797 1.33331 10.2402 1.33331 11.667L1.33331 28.3335C1.33331 29.7603 1.58553 31.0825 2.08996 32.3003C2.59439 33.5181 3.35102 34.6313 4.35988 35.6401C5.36873 36.6489 6.48205 37.4058 7.69984 37.9102C8.91764 38.4146 10.2399 38.667 11.6666 38.667L28.3333 38.667C29.7601 38.667 31.0823 38.4146 32.3001 37.9102C33.5179 37.4058 34.6312 36.6489 35.6401 35.6401C36.6489 34.6313 37.4056 33.5181 37.91 32.3003C38.4144 31.0825 38.6666 29.7603 38.6666 28.3335L38.6666 11.667C38.6666 10.2402 38.4144 8.91797 37.91 7.7002C37.4056 6.48242 36.6489 5.36914 35.6401 4.35986C34.6312 3.35107 33.5179 2.59473 32.3001 2.09033ZM11.6666 5.3335L28.3333 5.3335C29.2078 5.3335 30.0182 5.48828 30.7646 5.79736C31.511 6.10645 32.1933 6.57031 32.8117 7.18848C33.43 7.80664 33.8937 8.48926 34.2029 9.23535C34.5121 9.98193 34.6666 10.7925 34.6666 11.667L34.6666 28.3335C34.6666 29.208 34.5121 30.0186 34.2029 30.7646C33.8937 31.5112 33.43 32.1934 32.8117 32.812C32.1933 33.4302 31.511 33.894 30.7646 34.2031C30.0182 34.5122 29.2078 34.667 28.3333 34.667L11.6666 34.667C10.7922 34.667 9.98178 34.5122 9.23539 34.2031C8.489 33.894 7.80664 33.4302 7.1883 32.812C6.56997 32.1934 6.10623 31.5112 5.79706 30.7646C5.4879 30.0186 5.33331 29.208 5.33331 28.3335L5.33331 11.667C5.33331 10.7925 5.4879 9.98193 5.79706 9.23535C6.10623 8.48926 6.56997 7.80664 7.1883 7.18848C7.80663 6.57031 8.48899 6.10645 9.23538 5.79736C9.98178 5.48828 10.7922 5.3335 11.6666 5.3335Z" fill="#000000" fill-opacity="1.000000" fill-rule="evenodd"/>
		<path id="Vector (Border)" d="M27.0495 25.0693C27.3165 24.707 27.555 24.3237 27.7648 23.9189C27.9747 23.5146 28.1509 23.0991 28.2935 22.6719C28.436 22.2451 28.5449 21.8066 28.6201 21.3569C28.6952 20.9077 28.7349 20.458 28.7391 20.0078C28.7432 19.5576 28.7119 19.1069 28.645 18.6562C28.5768 18.1963 28.4734 17.7476 28.3348 17.3101C28.1963 16.8726 28.0225 16.4463 27.8135 16.0312C27.6045 15.6157 27.3656 15.2222 27.0968 14.8506C26.8279 14.4785 26.5291 14.1279 26.2004 13.7993C25.8717 13.4707 25.5213 13.1719 25.1493 12.9028C24.7774 12.6343 24.3838 12.395 23.9686 12.186C23.5533 11.9771 23.1269 11.8032 22.6894 11.665C22.2519 11.5264 21.8032 11.4229 21.3434 11.3545C20.8926 11.2876 20.4421 11.2563 19.992 11.2607C19.5418 11.2646 19.092 11.3047 18.6425 11.3794C18.193 11.4546 17.7548 11.5635 17.3278 11.7061C16.9008 11.8486 16.485 12.0249 16.0805 12.2349C15.676 12.4448 15.2925 12.6831 14.9302 12.9502C14.5678 13.2173 14.2264 13.5132 13.9062 13.8374C13.5859 14.1616 13.2945 14.5063 13.0319 14.8721C12.7694 15.2378 12.5356 15.624 12.3307 16.0312C12.1258 16.438 11.9548 16.856 11.8175 17.2847C11.6803 17.7134 11.5768 18.1533 11.5072 18.6035C11.4376 19.0537 11.4034 19.5039 11.4048 19.9541C11.4062 20.4043 11.4431 20.8545 11.5155 21.3042C11.5879 21.7544 11.6941 22.1934 11.834 22.6211C11.9739 23.0488 12.1475 23.4658 12.3549 23.8716C12.5623 24.2773 12.7984 24.6626 13.0632 25.0264C13.3281 25.3906 13.6216 25.7334 13.9438 26.0557C14.2661 26.3779 14.6092 26.6714 14.9732 26.9365C15.3373 27.2012 15.7222 27.4375 16.128 27.6445C16.5338 27.8521 16.9507 28.0259 17.3786 28.1655C17.8065 28.3057 18.2453 28.4116 18.6952 28.4844C19.1452 28.5566 19.5953 28.5933 20.0454 28.5947C20.4956 28.5962 20.9458 28.562 21.3962 28.4927C21.8466 28.4229 22.2862 28.3193 22.7149 28.1821C23.1436 28.0449 23.5615 27.874 23.9686 27.6689C24.3756 27.4639 24.7619 27.2305 25.1276 26.9678C25.4932 26.7051 25.8382 26.4136 26.1625 26.0933C26.4867 25.7734 26.7824 25.4316 27.0495 25.0693ZM24.4989 21.4053C24.4222 21.6353 24.3273 21.8594 24.2143 22.0767C24.1013 22.2949 23.9729 22.501 23.8291 22.6963C23.6853 22.8916 23.5261 23.0752 23.3515 23.2476C23.1769 23.4199 22.9912 23.5771 22.7943 23.7183C22.5974 23.8599 22.3894 23.9858 22.1702 24.0962C21.951 24.2065 21.726 24.2983 21.4952 24.3726C21.2643 24.4463 21.0276 24.502 20.7851 24.5396C20.5425 24.5771 20.3001 24.5952 20.0577 24.5947C19.8153 24.5938 19.573 24.5737 19.3307 24.5352C19.0885 24.4961 18.8522 24.439 18.6218 24.3638C18.3914 24.2881 18.1669 24.1948 17.9484 24.083C17.7298 23.9712 17.5226 23.8442 17.3265 23.7017C17.1305 23.5591 16.9458 23.4009 16.7723 23.2275C16.5987 23.0537 16.4407 22.8691 16.2981 22.6729C16.1555 22.4771 16.0284 22.27 15.9167 22.0513C15.805 21.833 15.7115 21.6084 15.6362 21.3779C15.5608 21.1475 15.5037 20.9111 15.4647 20.6689C15.4257 20.4268 15.4059 20.1846 15.4051 19.9419C15.4044 19.6997 15.4227 19.457 15.4602 19.2148C15.4977 18.9722 15.5534 18.7354 15.6273 18.5044C15.7012 18.2739 15.7934 18.0488 15.9037 17.8296C16.014 17.6104 16.1399 17.4023 16.2813 17.2056C16.4226 17.0083 16.5796 16.8228 16.752 16.6479C16.9244 16.4736 17.1082 16.3145 17.3034 16.1704C17.4985 16.0269 17.705 15.8984 17.9228 15.7852C18.1406 15.6724 18.3644 15.5776 18.5944 15.5005C18.8243 15.4238 19.0603 15.3652 19.3023 15.3247C19.5443 15.2842 19.7866 15.2632 20.0289 15.2607C20.2713 15.2583 20.5139 15.2754 20.7566 15.3115C21.0042 15.3481 21.2458 15.4038 21.4814 15.4785C21.717 15.5532 21.9466 15.6465 22.1702 15.7593C22.3938 15.8716 22.6057 16.0005 22.806 16.145C23.0063 16.29 23.195 16.4507 23.3719 16.6279C23.5489 16.8047 23.7098 16.9932 23.8546 17.1938C23.9993 17.394 24.128 17.606 24.2405 17.8296C24.3531 18.0532 24.4467 18.2827 24.5213 18.5181C24.5959 18.7539 24.6516 18.9956 24.6883 19.2432C24.7243 19.4858 24.7412 19.728 24.7389 19.9707C24.7367 20.2129 24.7153 20.4551 24.6748 20.6973C24.6344 20.9395 24.5757 21.1753 24.4989 21.4053Z" fill="#000000" fill-opacity="1.000000" fill-rule="evenodd"/>
		<path id="Vector (Border)" d="M29.1834 8.8335C30.3034 8.8335 31.1834 9.71338 31.1834 10.8335C31.1834 11.9536 30.3034 12.8335 29.1834 12.8335C28.0634 12.8335 27.1667 11.9536 27.1667 10.8335C27.1667 9.71338 28.0634 8.8335 29.1834 8.8335Z" fill="#000000" fill-opacity="1.000000" fill-rule="evenodd"/>
	</g>
</svg>
