<svg width="40.000000" height="40.000000" viewBox="0 0 40 40" fill="none" xmlns="http://www.w3.org/2000/svg" xmlns:xlink="http://www.w3.org/1999/xlink">
	<desc>
			Created with Pixso.
	</desc>
	<defs>
		<clipPath id="clip60_437">
			<rect id="Twitter" width="40.000000" height="40.000000" fill="white" fill-opacity="0"/>
		</clipPath>
	</defs>
	<rect id="Twitter" width="40.000000" height="40.000000" fill="#FFFFFF" fill-opacity="0"/>
	<g clip-path="url(#clip60_437)">
		<path id="Vector (Border)" d="M33.6304 5.2583C34.0777 5.08789 34.5156 4.89844 34.9441 4.68945C35.7203 4.31104 36.4658 3.87012 37.1805 3.36572C37.4165 3.19922 37.6764 3.08936 37.9601 3.03516C38.2438 2.98145 38.526 2.98877 38.8066 3.05713C39.3432 3.1875 39.755 3.48877 40.042 3.96094C40.3291 4.43262 40.4072 4.93701 40.2765 5.47363C39.9435 6.84082 39.4432 8.11377 38.7757 9.2915C38.2704 10.1831 37.6694 11.02 36.9725 11.8032C36.9901 12.0342 36.9992 12.2666 37 12.5C37 18.5654 35.5586 23.585 32.6759 27.5591C30.736 30.2334 28.1434 32.4341 24.898 34.1616C21.6875 35.8701 18.4286 36.832 15.1213 37.0464C10.4109 37.3516 5.60225 36.1411 0.695389 33.415C0.365448 33.2319 0.108017 32.9756 -0.076889 32.6465C-0.261795 32.3174 -0.346748 31.9644 -0.331749 31.5874C-0.309799 31.0356 -0.0959549 30.5723 0.309784 30.1978C0.715523 29.8228 1.19431 29.6465 1.74616 29.6685C3.65422 29.7441 5.48026 29.5332 7.22426 29.0347C7.87878 28.8477 8.52176 28.6201 9.15318 28.3525C6.7385 26.7871 4.89683 24.8945 3.62816 22.6748C2.36813 20.4697 1.67332 17.9419 1.54374 15.0908C1.39738 11.8711 1.88648 8.91699 3.01105 6.22852C3.06345 6.10352 3.11723 5.97852 3.17239 5.85449C3.24598 5.68896 3.34034 5.53613 3.45546 5.39648C3.57058 5.25635 3.70229 5.13428 3.85059 5.03027C4.30255 4.71289 4.80054 4.60156 5.34457 4.69678C5.8886 4.79199 6.31931 5.06543 6.63672 5.51758C7.39548 6.59766 8.25936 7.55664 9.22838 8.39355C10.1974 9.23047 11.2716 9.9458 12.4509 10.5396C13.6302 11.1328 14.8446 11.5698 16.0942 11.8491C16.7217 11.9897 17.3581 12.0908 18.0033 12.1519C18.027 11.312 18.1554 10.5034 18.3886 9.72656C18.6608 8.81934 19.0758 7.95459 19.6336 7.13281C20.1914 6.31152 20.8416 5.60645 21.5844 5.01855C22.3272 4.43066 23.1625 3.95996 24.0903 3.60596C25.0181 3.25146 25.9548 3.04639 26.9004 2.98975C27.846 2.93311 28.8005 3.02539 29.7639 3.2666C30.7272 3.50781 31.6127 3.87549 32.4203 4.37109C32.8452 4.63135 33.2486 4.92725 33.6304 5.2583ZM30.3269 7.78467C30.7932 8.0708 31.2146 8.42969 31.5909 8.86279C31.849 9.15967 32.167 9.3623 32.5449 9.47168C32.9228 9.58057 33.3 9.57861 33.6767 9.46533C33.6018 9.54346 33.5399 9.61621 33.4623 9.69287C33.2247 9.92725 33.0562 10.2036 32.957 10.5225C32.8578 10.8413 32.8396 11.1646 32.9022 11.4922C32.9584 11.7861 32.9904 12.0811 32.9982 12.376C32.9993 12.4175 32.9999 12.459 33 12.5C33 17.771 31.7341 22.0903 29.2023 25.4575C27.6295 27.5488 25.5683 29.2734 23.0186 30.6304C20.4414 32.0024 17.8185 32.793 15.1499 33.0029C13.2416 33.1528 11.3098 33.0059 9.35474 32.562C11.1263 31.9521 12.8269 31.0947 14.4566 29.9883C14.611 29.8833 14.748 29.7593 14.8677 29.6162C14.9874 29.4731 15.0852 29.3164 15.161 29.146C15.3853 28.6411 15.3983 28.1309 15.2 27.6157C15.0018 27.1001 14.6503 26.73 14.1456 26.5059C10.7689 25.0049 8.38398 22.9678 6.99083 20.3936C6.11606 18.7769 5.63232 16.9492 5.53961 14.9092C5.47233 13.4292 5.56657 12.0259 5.82233 10.7002C6.07919 10.9482 6.34258 11.189 6.61246 11.4219C7.82733 12.4712 9.17401 13.3682 10.6525 14.1123C12.131 14.8564 13.6535 15.4038 15.22 15.7544C16.7866 16.105 18.3972 16.2593 20.0518 16.2163C20.5939 16.2021 21.0541 16.001 21.4324 15.6128C21.8108 15.2241 22 14.7588 22 14.2168L21.9998 12.5234C21.9921 11.9497 22.0669 11.4014 22.2241 10.8774C22.3813 10.3535 22.621 9.854 22.943 9.37988C23.2651 8.90527 23.6407 8.49805 24.0696 8.15869C24.4985 7.81934 24.9809 7.54736 25.5167 7.34277C26.0524 7.13818 26.5933 7.01953 27.1394 6.9873C27.6854 6.95459 28.2366 7.00781 28.7929 7.14697C29.3492 7.28613 29.8606 7.49854 30.3269 7.78467Z" fill="#000000" fill-opacity="1.000000" fill-rule="evenodd"/>
	</g>
</svg>
