<svg width="19.500000" height="19.484192" viewBox="0 0 19.5 19.4842" fill="none" xmlns="http://www.w3.org/2000/svg" xmlns:xlink="http://www.w3.org/1999/xlink">
	<desc>
			Created with Pixso.
	</desc>
	<defs>
		<clipPath id="clip1_133">
			<rect id="shopping-cart 1" width="19.500002" height="19.484186" fill="white" fill-opacity="0"/>
		</clipPath>
	</defs>
	<rect id="shopping-cart 1" width="19.500002" height="19.484186" fill="#FFFFFF" fill-opacity="0"/>
	<g clip-path="url(#clip1_133)">
		<path id="Vector" d="M14.778 14.4778C13.53 14.4778 12.5011 15.4841 12.5011 16.7528C12.5011 17.9998 13.5082 19.0279 14.778 19.0279C16.0259 19.0279 17.0549 18.0216 17.0549 16.7528C17.0331 15.5059 16.0259 14.4778 14.778 14.4778Z" fill="#FFAD4C" fill-opacity="1.000000" fill-rule="nonzero"/>
		<path id="Vector" d="M18.7845 3.62802C18.7407 3.62802 18.675 3.60614 18.6094 3.60614L4.81653 3.60614L4.59766 2.14047C4.46619 1.17795 3.63428 0.456055 2.64905 0.456055L0.875732 0.456055C0.394043 0.456055 0 0.849823 0 1.33109C0 1.81235 0.394043 2.20612 0.875732 2.20612L2.64905 2.20612C2.75854 2.20612 2.84619 2.29361 2.86804 2.40298L4.22546 11.6345C4.40051 12.7939 5.40771 13.6689 6.58984 13.6689L15.6975 13.6689C16.8359 13.6689 17.8212 12.8595 18.062 11.7439L19.4851 4.63428C19.5726 4.1749 19.2661 3.71552 18.7845 3.62802Z" fill="#FFAD4C" fill-opacity="1.000000" fill-rule="nonzero"/>
		<path id="Vector" d="M9.19519 16.6435C9.15137 15.4403 8.14429 14.4778 6.94019 14.4778C5.67029 14.5434 4.70703 15.5934 4.75085 16.8403C4.79456 18.0435 5.77979 19.006 6.98389 19.006L7.02771 19.006C8.27563 18.9404 9.26086 17.8904 9.19519 16.6435Z" fill="#FFAD4C" fill-opacity="1.000000" fill-rule="nonzero"/>
	</g>
</svg>
