<svg width="20.000000" height="20.000000" viewBox="0 0 20 20" fill="none" xmlns="http://www.w3.org/2000/svg" xmlns:xlink="http://www.w3.org/1999/xlink">
	<desc>
			Created with Pixso.
	</desc>
	<defs/>
	<path id="Search - Bd" d="M8.57764 0C3.84033 0 0 3.88171 0 8.66992C0 13.4583 3.84033 17.3398 8.57764 17.3398C13.3149 17.3398 17.1553 13.4583 17.1553 8.66992C17.1553 6.37048 16.2516 4.16528 14.6429 2.53931C13.0343 0.913452 10.8526 0 8.57764 0Z" fill="#F9F9FA" fill-opacity="1.000000" fill-rule="nonzero"/>
	<path id="Path_33905" d="M19.568 17.7164L17.0134 15.6543C16.6268 15.2704 16.0072 15.2704 15.6207 15.6543C15.4203 15.8561 15.3076 16.1304 15.3076 16.4164C15.3076 16.7024 15.4203 16.9766 15.6207 17.1785L17.7407 19.6082C18.2576 20.1306 19.0955 20.1306 19.6124 19.6082C20.1292 19.0858 20.1292 18.2388 19.6124 17.7164L19.568 17.7164Z" fill="#F9F9FA" fill-opacity="1.000000" fill-rule="nonzero"/>
</svg>
