<svg width="12.250000" height="12.249512" viewBox="0 0 12.25 12.2495" fill="none" xmlns="http://www.w3.org/2000/svg" xmlns:xlink="http://www.w3.org/1999/xlink">
	<desc>
			Created with Pixso.
	</desc>
	<defs/>
	<path id="Vector" d="M2.742 12.2495L0.202332 12.2495L0.202332 4.07129L2.742 4.07129L2.742 12.2495ZM1.47083 2.95557C0.658691 2.95557 0 2.28271 0 1.4707C0 1.08057 0.154968 0.706543 0.430786 0.430664C0.706604 0.154785 1.08075 0 1.47083 0C1.8609 0 2.23499 0.154785 2.51086 0.430664C2.78668 0.706543 2.94165 1.08057 2.94165 1.4707C2.94165 2.28271 2.28265 2.95557 1.47083 2.95557ZM12.2473 12.2495L9.71307 12.2495L9.71307 8.26855C9.71307 7.31982 9.69391 6.10303 8.39264 6.10303C7.0722 6.10303 6.86987 7.13379 6.86987 8.2002L6.86987 12.2495L4.33289 12.2495L4.33289 4.07129L6.76868 4.07129L6.76868 5.18701L6.8042 5.18701C7.14331 4.54443 7.9715 3.86621 9.20721 3.86621C11.7775 3.86621 12.25 5.55859 12.25 7.75732L12.25 12.2495L12.2473 12.2495Z" fill="#FFFFFF" fill-opacity="1.000000" fill-rule="nonzero"/>
</svg>
