<svg width="12.256836" height="12.253906" viewBox="0 0 12.2568 12.2539" fill="none" xmlns="http://www.w3.org/2000/svg" xmlns:xlink="http://www.w3.org/1999/xlink">
	<desc>
			Created with Pixso.
	</desc>
	<defs/>
	<path id="Vector" d="M6.12976 2.98535C4.39075 2.98535 2.98798 4.38818 2.98798 6.12695C2.98798 7.86621 4.39075 9.26904 6.12976 9.26904C7.86884 9.26904 9.27161 7.86621 9.27161 6.12695C9.27161 4.38818 7.86884 2.98535 6.12976 2.98535ZM6.12976 8.16943C5.00598 8.16943 4.08722 7.25342 4.08722 6.12695C4.08722 5.00049 5.00323 4.08447 6.12976 4.08447C7.25635 4.08447 8.17236 5.00049 8.17236 6.12695C8.17236 7.25342 7.2536 8.16943 6.12976 8.16943ZM10.1329 2.85693C10.1329 3.26416 9.80481 3.58936 9.40009 3.58936C8.99268 3.58936 8.6673 3.26123 8.6673 2.85693C8.6673 2.45215 8.99542 2.12402 9.40009 2.12402C9.80481 2.12402 10.1329 2.45215 10.1329 2.85693ZM12.2137 3.60059C12.1673 2.61865 11.9431 1.74951 11.2239 1.03271C10.5075 0.316406 9.638 0.0922852 8.65637 0.0429688C7.64465 -0.0141602 4.61218 -0.0141602 3.60046 0.0429688C2.62158 0.0893555 1.75208 0.313965 1.0329 1.03027C0.313782 1.74658 0.0922852 2.61621 0.0430908 3.59766C-0.0143433 4.60938 -0.0143433 7.64209 0.0430908 8.65381C0.0895386 9.63525 0.313782 10.5049 1.0329 11.2212C1.75208 11.9375 2.61884 12.1616 3.60046 12.2109C4.61218 12.2686 7.64465 12.2686 8.65637 12.2109C9.638 12.1646 10.5075 11.9404 11.2239 11.2212C11.9403 10.5049 12.1646 9.63525 12.2137 8.65381C12.2712 7.64209 12.2712 4.6123 12.2137 3.60059ZM10.9067 9.73926C10.6935 10.2749 10.2806 10.688 9.74188 10.9038C8.93524 11.2241 7.02118 11.1499 6.12976 11.1499C5.2384 11.1499 3.32159 11.2212 2.5177 10.9038C1.98175 10.6909 1.56885 10.2778 1.35284 9.73926C1.0329 8.93262 1.10675 7.01855 1.10675 6.12695C1.10675 5.23584 1.03564 3.31885 1.35284 2.51514C1.5661 1.979 1.979 1.56592 2.5177 1.3501C3.32434 1.03027 5.2384 1.104 6.12976 1.104C7.02118 1.104 8.93799 1.03271 9.74188 1.3501C10.2778 1.56348 10.6907 1.97607 10.9067 2.51514C11.2267 3.32178 11.1528 5.23584 11.1528 6.12695C11.1528 7.01855 11.2267 8.93506 10.9067 9.73926Z" fill="#FFFFFF" fill-opacity="1.000000" fill-rule="nonzero"/>
</svg>
